<svg width="17" height="21" viewBox="0 0 17 21" fill="none" xmlns="http://www.w3.org/2000/svg">
<path d="M4.98267 0.0141602C2.43037 0.0141602 0.982666 1.46256 0.982666 4.01626V19.0242C0.982666 19.7425 1.72907 20.2135 2.38887 19.9309L8.98267 17.1169L15.5764 19.9309C16.2363 20.2139 16.9827 19.7423 16.9827 19.0242V4.01626C16.9827 1.39146 15.678 0.0142602 12.9827 0.0141602H4.98267ZM11.9827 6.01736C12.2386 6.01726 12.5062 6.10336 12.7014 6.29866C13.0919 6.68936 13.0919 7.34626 12.7014 7.73696L8.70137 11.7391C8.31087 12.13 7.65437 12.1298 7.26387 11.7391L5.26387 9.73806C4.87337 9.34736 4.87337 8.69046 5.26387 8.29976C5.65447 7.90886 6.31087 7.90906 6.70137 8.29976L7.98267 9.58166L11.2639 6.29866C11.4592 6.10326 11.7267 6.01736 11.9827 6.01736Z" fill="white"/>
</svg>
