<svg width="304" height="80" viewBox="0 0 304 80" fill="none" xmlns="http://www.w3.org/2000/svg">
<path fill-rule="evenodd" clip-rule="evenodd" d="M15.7645 35.0689C15.5341 35.0723 15.3042 35.0486 15.0793 34.9982C14.7194 34.899 14.384 34.7252 14.0944 34.488C13.704 34.1806 13.3884 33.7873 13.1718 33.3381C13.006 32.9692 12.9312 32.5652 12.9538 32.1608C12.959 32.0285 12.9773 31.897 13.0083 31.7683C13.0167 31.7336 13.0161 31.6974 13.0065 31.663C12.997 31.6287 12.9788 31.5973 12.9538 31.5721C12.6168 31.0838 12.3075 30.5768 12.0273 30.0533C12.0095 30.0281 12 29.9979 12 29.9669C12 29.936 12.0095 29.9058 12.0273 29.8806C12.1849 29.6259 12.3592 29.382 12.549 29.1506C12.7164 28.9466 12.8915 28.7582 13.0745 28.5619L13.1329 28.5031C13.203 28.4364 13.2497 28.4128 13.3236 28.5031C13.6896 29.0525 14.1022 29.5706 14.4915 30.0729C14.8263 30.485 15.1805 30.8853 15.5387 31.2817C15.8968 31.6781 16.2316 32.0234 16.5937 32.3727C17.0725 32.8397 17.5669 33.2871 18.0885 33.7031C18.5089 34.0406 18.9333 34.3625 19.3771 34.6607C19.4316 34.6961 19.416 34.7157 19.3771 34.751C18.9521 35.217 18.4738 35.6307 17.9523 35.9833C17.9376 35.9942 17.9199 36 17.9017 36C17.8835 36 17.8657 35.9942 17.8511 35.9833C17.3678 35.7078 16.9012 35.4038 16.4535 35.0728C16.4036 35.0224 16.341 34.9866 16.2724 34.9693C16.2038 34.952 16.1318 34.9539 16.0642 34.9747C15.9928 34.9924 15.9197 35.0029 15.8462 35.0061C15.8501 35.0689 15.8034 35.0493 15.7645 35.0689Z" fill="white" fill-opacity="0.8"/>
<path fill-rule="evenodd" clip-rule="evenodd" d="M35.7894 20.7088C35.3918 18.45 34.2623 16.388 32.5778 14.8455C30.6502 13.003 28.0906 11.9835 25.4344 12.0002C24.8958 11.9971 24.3579 12.0404 23.8266 12.1297C22.6878 12.3101 21.5867 12.6801 20.5683 13.2247C20.0017 13.5256 19.4659 13.8818 18.9683 14.2882C18.6667 14.5328 18.3794 14.7949 18.108 15.0731C17.9017 15.289 17.6837 15.4931 17.489 15.7207C17.2944 15.9483 17.1698 16.0935 17.018 16.2858C16.7198 16.6696 16.4479 17.0735 16.2044 17.4946C15.8746 18.0598 15.5983 18.6551 15.3791 19.2724C15.2444 19.6475 15.1313 20.0302 15.0404 20.4184C14.947 20.8344 14.873 21.2543 14.8146 21.6743C14.7757 21.9294 14.7718 22.1923 14.7562 22.4592C14.7508 22.5056 14.7417 22.5516 14.729 22.5965V23.3815C14.7523 23.4364 14.729 23.4992 14.729 23.5581C14.7341 23.8775 14.7614 24.1962 14.8107 24.5117C14.8533 24.8488 14.9157 25.1829 14.9976 25.5125C14.9976 25.5792 15.0521 25.642 14.9976 25.7127C14.8574 25.8814 14.7134 26.0423 14.5771 26.215C14.3697 26.4798 14.1773 26.7563 14.001 27.0431C13.9868 27.0616 13.9791 27.0844 13.9791 27.1078C13.9791 27.1313 13.9868 27.154 14.001 27.1726C14.1567 27.4277 14.3046 27.6906 14.4642 27.9575C14.9129 28.6684 15.4057 29.35 15.9396 29.9983C16.255 30.3907 16.582 30.744 16.9129 31.1129C17.0725 31.2855 17.2438 31.4504 17.415 31.6113C17.5863 31.7722 17.8043 31.9841 18.0029 32.1646C18.2754 32.4119 18.5557 32.6434 18.8398 32.8789C19.2058 33.1772 19.5795 33.4598 19.9688 33.7266C20.3581 33.9935 20.7473 34.2486 21.1366 34.4841C21.1692 34.5105 21.2097 34.5249 21.2515 34.5249C21.2933 34.5249 21.3338 34.5105 21.3663 34.4841C21.7865 34.2082 22.1778 33.89 22.5342 33.5343C22.5653 33.5069 22.5926 33.4715 22.6354 33.4912C22.7082 33.5131 22.7823 33.5302 22.8573 33.5422C23.2301 33.6359 23.6085 33.7054 23.9901 33.7502C24.2704 33.7855 24.5585 33.7894 24.8465 33.809C24.9361 33.809 25.0256 33.809 25.1113 33.809C25.1902 33.8001 25.2698 33.8001 25.3487 33.809C25.4383 33.7855 25.5278 33.809 25.6134 33.809C25.8548 33.809 26.0923 33.7855 26.3297 33.758C26.9085 33.6921 27.4812 33.5806 28.0426 33.4244C28.9383 33.1717 29.796 32.7981 30.5924 32.3138C31.5176 31.7542 32.3525 31.0554 33.0683 30.2416C34.2474 28.9894 35.1102 27.4695 35.5838 25.8103C36.0575 24.1511 36.128 22.4013 35.7894 20.7088ZM31.6902 29.3429C30.5431 30.5399 29.0734 31.3721 27.4626 31.7369C26.7105 31.924 25.9359 32.0033 25.1619 31.9723C22.9965 31.9124 20.9311 31.0406 19.3693 29.5273C17.9773 28.2303 17.0402 26.513 16.6988 24.6334C16.4131 23.2685 16.4452 21.8555 16.7923 20.5052C17.1395 19.1549 17.7924 17.9041 18.6997 16.851C19.9361 15.3794 21.6334 14.3771 23.5113 14.0096C24.191 13.8595 24.887 13.7975 25.5823 13.8251C27.5128 13.8795 29.3703 14.581 30.861 15.8188C32.417 17.0743 33.5129 18.8173 33.9753 20.7716C34.1487 21.4975 34.2311 22.2424 34.2206 22.989C34.2371 25.362 33.3284 27.6466 31.6902 29.3507V29.3429Z" fill="white" fill-opacity="0.8"/>
<path fill-rule="evenodd" clip-rule="evenodd" d="M25.2397 15.599C26.9229 15.5988 28.5557 16.1773 29.8687 17.2391C31.1816 18.3008 32.0961 19.7822 32.461 21.4387C32.893 23.2665 32.632 25.1911 31.7292 26.835C31.6373 27.0329 31.5237 27.2199 31.3905 27.3923C31.1989 27.6142 30.9529 27.7816 30.677 27.8775C30.4011 27.9735 30.1051 27.9947 29.8185 27.9391C29.5319 27.8834 29.2649 27.7529 29.0441 27.5605C28.8233 27.3681 28.6565 27.1206 28.5604 26.8428C28.3405 26.192 27.8766 25.6538 27.2679 25.3437C26.8349 25.11 26.3472 24.9987 25.8566 25.0215C25.3659 25.0443 24.8905 25.2003 24.4806 25.4732C23.9359 25.7969 23.3249 25.9907 22.6945 26.0398C22.064 26.0888 21.4308 25.9919 20.8432 25.7563C20.2557 25.5207 19.7293 25.1528 19.3045 24.6806C18.8797 24.2084 18.5676 23.6445 18.3922 23.0321C18.2219 22.4754 18.1652 21.8897 18.2254 21.3104C18.2856 20.731 18.4615 20.1699 18.7425 19.6609C19.2491 18.6502 19.9796 17.7706 20.8774 17.09C21.7752 16.4095 22.8163 15.9463 23.9201 15.7363C24.0758 15.701 24.2354 15.6814 24.395 15.6617C24.6748 15.621 24.957 15.6 25.2397 15.599ZM28.2567 29.8177C28.4994 29.7665 28.7231 29.6483 28.9029 29.4762C28.9988 29.3723 29.067 29.2455 29.1011 29.1078C29.1352 28.9701 29.1341 28.8259 29.0979 28.6887C29.0618 28.5515 28.9917 28.4258 28.8943 28.3233C28.7969 28.2208 28.6753 28.1449 28.5409 28.1026C28.3462 28.052 28.1695 27.9473 28.0309 27.8004C27.8768 27.6308 27.76 27.4302 27.6884 27.2118C27.572 26.9238 27.3626 26.6838 27.0942 26.5307C26.8257 26.3776 26.5139 26.3202 26.2091 26.368C26.0006 26.4062 25.8036 26.4918 25.6329 26.6184C25.4622 26.7449 25.3224 26.909 25.2241 27.0982C25.1257 27.2874 25.0715 27.4966 25.0654 27.7101C25.0594 27.9236 25.1017 28.1357 25.1891 28.3303C25.3842 28.8107 25.7186 29.2206 26.1486 29.5063C26.5785 29.7919 27.084 29.9402 27.5988 29.9315C27.8238 29.93 28.0471 29.8929 28.2606 29.8216L28.2567 29.8177Z" fill="white" fill-opacity="0.8"/>
<path fill-rule="evenodd" clip-rule="evenodd" d="M84.357 33.9487C83.1928 33.9487 82.0238 33.9487 80.8548 33.9487C80.5564 33.9487 80.4782 33.87 80.4782 33.5784C80.4782 27.3055 80.4782 21.0326 80.4782 14.7597C80.4782 14.4773 80.5369 14.3801 80.8499 14.3848C82.3173 14.3848 83.7553 14.3848 85.2081 14.3848C85.4771 14.3848 85.5798 14.4449 85.6532 14.7319C86.8124 19.2769 87.9961 23.8127 89.17 28.3577C89.1918 28.4814 89.2437 28.5987 89.3216 28.7002C89.5384 28.119 89.702 27.5213 89.8108 26.9137C90.5542 24.2061 91.1999 21.4707 91.9532 18.7585C92.3298 17.4117 92.6379 16.0556 93.0097 14.718C93.0733 14.482 93.1662 14.4033 93.3912 14.4033C94.8879 14.4033 96.3945 14.4033 97.8961 14.4033C98.3363 14.4033 98.2434 14.6717 98.2434 14.9078C98.2434 20.1038 98.2434 25.2984 98.2434 30.4913C98.2434 31.5235 98.2434 32.5556 98.2434 33.5923C98.2434 33.8839 98.1651 33.9672 97.8618 33.9626C96.6977 33.9626 95.5287 33.9626 94.3597 33.9626C94.3036 33.8144 94.2885 33.6551 94.3157 33.4998C94.3157 29.7971 94.3157 26.0944 94.3157 22.4242C94.3157 22.2946 94.433 22.1048 94.208 22.0215C93.7776 23.4563 93.3374 24.8864 92.9118 26.3259C92.1814 28.7943 91.4559 31.2751 90.7352 33.7682C90.6814 33.9348 90.6178 33.9811 90.4564 33.9811C89.7276 33.9811 88.989 33.9811 88.2749 33.9811C87.8689 33.9811 87.9081 33.6247 87.8445 33.4211C87.4091 32.0326 87.0081 30.6071 86.5972 29.1954C86.2108 27.8671 85.839 26.5341 85.4526 25.2104C85.1543 24.1783 84.8363 23.1462 84.5282 22.1141C84.2738 22.2066 84.4108 22.4103 84.4108 22.5769C84.4108 26.224 84.4108 29.8712 84.4108 33.5229C84.4296 33.6669 84.4112 33.813 84.357 33.9487Z" fill="white" fill-opacity="0.8"/>
<path fill-rule="evenodd" clip-rule="evenodd" d="M152.674 19.9295C152.674 18.7539 152.375 17.6801 151.152 17.1525C149.573 16.4953 147.729 17.2543 147.729 19.1288C147.668 19.2905 147.668 19.467 147.729 19.6287C147.685 20.4386 148.218 20.9292 148.829 21.355C149.833 21.9786 150.914 22.4838 152.048 22.8592C153.515 23.4424 154.889 24.1737 155.809 25.4928C156.312 26.2514 156.608 27.1167 156.67 28.0106C156.703 28.357 156.703 28.7055 156.67 29.0519C156.401 31.8567 154.376 33.384 151.803 33.7821C151.446 33.8376 151.084 33.8608 150.722 33.8978C150.424 33.9266 150.125 33.9266 149.827 33.8978C148.418 33.8642 147.046 33.4604 145.865 32.7315C145.264 32.3656 144.749 31.8867 144.352 31.3246C143.955 30.7625 143.684 30.1291 143.556 29.4639C143.488 29.1214 143.478 28.7789 143.434 28.4364C143.392 28.1787 143.392 27.9165 143.434 27.6588C143.907 27.5779 144.389 27.5577 144.867 27.5986C145.503 27.5986 146.139 27.5986 146.78 27.5986C147.166 27.5986 147.269 27.6727 147.269 28.0615C147.248 28.4795 147.315 28.8973 147.466 29.2907C147.617 29.684 147.849 30.0449 148.149 30.3525C148.917 31.0884 151.152 31.3846 152.131 30.2738C152.434 29.9136 152.635 29.4862 152.716 29.0319C152.796 28.5776 152.753 28.1115 152.591 27.6773C152.336 26.7748 151.573 26.3166 150.791 25.8954C149.891 25.4326 148.888 25.178 147.968 24.7522C147.008 24.3379 146.11 23.8057 145.298 23.1693C144.525 22.5299 144.007 21.6593 143.83 20.7024C143.609 19.6676 143.665 18.597 143.992 17.5876C144.34 16.5868 145.028 15.7228 145.948 15.1299C148.159 13.6026 152.018 13.6443 154.175 15.1299C154.865 15.5766 155.436 16.1693 155.842 16.861C156.248 17.5528 156.478 18.3245 156.513 19.1149C156.513 19.3602 156.567 19.5778 156.592 19.8462C156.552 19.9897 156.435 20.0036 156.308 20.0036H152.835C152.803 20.0127 152.769 20.0102 152.739 19.9965C152.709 19.9827 152.686 19.9588 152.674 19.9295Z" fill="white" fill-opacity="0.8"/>
<path fill-rule="evenodd" clip-rule="evenodd" d="M130.017 14.3848C130.663 14.3848 131.313 14.3848 131.974 14.3848C134.957 14.3848 137.941 14.3848 140.93 14.3848C141.321 14.3848 141.419 14.4774 141.419 14.8476C141.394 15.565 141.419 16.2963 141.419 17.0183C141.419 17.3099 141.336 17.384 141.037 17.3793C138.836 17.3793 136.635 17.3793 134.444 17.3793C134.062 17.3793 133.955 17.4626 133.955 17.8422C133.955 19.2307 133.955 20.6192 133.955 22.0077C133.955 22.2946 134.038 22.3779 134.341 22.3779C136.151 22.3779 137.961 22.3779 139.77 22.3779C140.118 22.3779 140.216 22.4612 140.206 22.7945C140.176 23.498 140.176 24.2107 140.206 24.9189C140.206 25.2799 140.132 25.3817 139.717 25.3817C137.946 25.3586 136.156 25.3817 134.385 25.3817C134.048 25.3817 133.94 25.4465 133.94 25.789C133.94 27.4135 133.94 29.0288 133.94 30.6626C133.94 30.8293 133.876 31.019 134.19 31.019C136.57 31.019 138.952 31.0098 141.336 30.9912C141.365 30.9912 141.409 31.019 141.409 31.0375C141.451 32.0233 141.44 33.0104 141.375 33.995H129.973C129.915 33.8569 129.9 33.706 129.929 33.56C129.929 27.3302 129.929 21.0974 129.929 14.8615C129.934 14.681 129.831 14.4866 130.017 14.3848Z" fill="white" fill-opacity="0.8"/>
<path fill-rule="evenodd" clip-rule="evenodd" d="M57.8266 27.6033C58.932 27.6033 60.0375 27.6264 61.138 27.6033C61.5049 27.6033 61.6271 27.7005 61.5978 28.0661C61.5293 29.3805 61.3239 30.658 60.4924 31.7688C59.5728 32.9582 58.2717 33.5136 56.8043 33.8006C56.4073 33.8594 56.0073 33.898 55.606 33.9163C55.281 33.9523 54.9527 33.9523 54.6277 33.9163C53.6763 33.8913 52.7373 33.7064 51.8543 33.3702C51.0393 33.0436 50.3106 32.5507 49.7204 31.9266C49.1302 31.3025 48.6931 30.5627 48.4402 29.7601C48.1893 29.0288 48.0413 28.2694 48 27.5014C48 25.1317 48 22.7759 48.0342 20.4109C48.0499 19.0558 48.4649 17.7318 49.2326 16.5879C49.7254 15.8791 50.3832 15.2865 51.1557 14.8557C51.9281 14.4248 52.7946 14.1672 53.6886 14.1025C55.2729 13.8914 56.8881 14.0815 58.3695 14.6532C59.1545 14.9555 59.8455 15.4416 60.3777 16.0657C60.9098 16.6899 61.2657 17.4317 61.4119 18.2217C61.5408 18.8046 61.6047 19.3987 61.6027 19.9943C61.6027 20.2628 61.5293 20.3368 61.2505 20.3322C60.2723 20.3322 59.3429 20.3322 58.3842 20.3322C57.7484 20.3322 57.6994 20.2581 57.6945 19.6194C57.7313 19.2482 57.6782 18.874 57.5392 18.5251C57.4002 18.1762 57.179 17.8619 56.8924 17.6061C56.5549 17.3454 56.1604 17.1591 55.7374 17.0606C55.3144 16.9621 54.8735 16.954 54.4467 17.0368C52.8913 17.3006 52.2359 18.0782 52.0011 19.5916C51.8994 20.6177 51.8699 21.649 51.913 22.6787C51.913 24.3542 51.913 26.0343 51.9522 27.7097C51.9509 28.4641 52.1784 29.203 52.6076 29.8388C52.8357 30.2008 53.1666 30.4951 53.5626 30.6882C53.9585 30.8813 54.4038 30.9654 54.8478 30.931C55.0163 30.9827 55.1978 30.9827 55.3663 30.931C55.9232 30.9642 56.4715 30.7886 56.8926 30.4421C57.3137 30.0956 57.5737 29.6062 57.6163 29.0797C57.6554 28.8344 57.8119 28.5891 57.7092 28.3253C57.8168 28.0985 57.6261 27.8162 57.8266 27.6033Z" fill="white" fill-opacity="0.8"/>
<path fill-rule="evenodd" clip-rule="evenodd" d="M126.354 25.7935C124.226 25.7935 122.098 25.7518 119.97 25.8166C119.91 25.9639 119.895 26.1243 119.926 26.2795C119.926 28.6738 119.926 31.0682 119.926 33.4626C119.954 33.6179 119.938 33.7772 119.882 33.9254C118.679 33.9254 117.471 33.9254 116.268 33.9254C115.979 33.9254 115.901 33.8606 115.901 33.5783C115.901 27.29 115.901 21.0032 115.901 14.7179C115.901 14.4541 115.96 14.3615 116.258 14.3615C119.92 14.3615 123.582 14.3615 127.244 14.3615C127.537 14.3615 127.66 14.4309 127.65 14.7318C127.65 15.4816 127.65 16.236 127.65 16.9904C127.65 17.2959 127.542 17.3514 127.249 17.3514C124.994 17.3514 122.739 17.3514 120.474 17.3514C120.313 17.3514 120.137 17.3514 119.985 17.3514C119.944 17.4151 119.927 17.4902 119.936 17.5643V22.5583C119.926 22.6325 119.943 22.7078 119.985 22.7712L123.771 22.799C124.632 22.799 125.503 22.799 126.368 22.799C126.456 23.2742 126.474 23.7585 126.422 24.2384C126.466 24.7574 126.443 25.2796 126.354 25.7935Z" fill="white" fill-opacity="0.8"/>
<path fill-rule="evenodd" clip-rule="evenodd" d="M163.293 17.4023C161.913 17.4023 160.534 17.3792 159.16 17.4023C158.851 17.4023 158.739 17.3375 158.754 17.0182C158.754 16.2637 158.754 15.514 158.754 14.7549C158.754 14.4818 158.851 14.4124 159.116 14.4124C163.286 14.4124 167.455 14.4124 171.623 14.4124C171.931 14.4124 172.009 14.5142 171.999 14.7966C171.999 15.551 171.999 16.3008 171.999 17.0552C171.999 17.3283 171.926 17.4069 171.642 17.4069C170.37 17.4069 169.094 17.4069 167.827 17.4069C167.338 17.4069 167.274 17.555 167.274 17.9716C167.274 23.1368 167.274 28.302 167.274 33.4718C167.274 33.8977 167.167 34.0087 166.731 33.9995C165.611 33.9625 164.491 33.9995 163.366 33.9995C163.31 33.8513 163.295 33.692 163.322 33.5366C163.322 28.339 163.322 23.1461 163.322 17.9485C163.374 17.7681 163.364 17.5768 163.293 17.4023Z" fill="white" fill-opacity="0.8"/>
<path fill-rule="evenodd" clip-rule="evenodd" d="M78.1401 20.2351C78.0229 18.7041 77.3209 17.2658 76.1653 16.1884C75.0097 15.1111 73.4793 14.4684 71.8597 14.3803C69.1646 14.1674 66.7483 14.6626 65.0119 16.8565C64.162 17.9271 63.6836 19.2206 63.6423 20.5591C63.5543 22.7715 63.6423 24.6552 63.6179 26.8768C63.6179 29.1909 64.5326 31.5051 66.6749 32.8288C69.3113 34.4487 73.7526 34.259 76.1592 32.0374C76.8233 31.4075 77.348 30.6586 77.7024 29.8344C78.0569 29.0103 78.2339 28.1275 78.2233 27.2378C78.3445 24.9011 78.3184 22.5596 78.145 20.2259L78.1401 20.2351ZM73.3222 28.1588C71.5516 29.0845 69.7956 26.6731 71.307 26.0205C71.5227 25.9222 71.7706 25.9078 71.9974 25.9805C72.2242 26.0532 72.4119 26.2072 72.52 26.4093C72.6853 26.7644 72.9831 27.0495 73.3564 27.21C73.4475 27.2575 73.5228 27.3278 73.5741 27.4133C73.6254 27.4988 73.6507 27.5961 73.6472 27.6944C73.6436 27.7926 73.6114 27.8881 73.554 27.97C73.4967 28.052 73.4164 28.1174 73.3222 28.1588ZM75.4793 26.363C75.3793 26.5637 75.2189 26.732 75.0181 26.8466C74.8174 26.9613 74.5853 27.0171 74.351 27.0072C74.1168 26.9973 73.8909 26.9221 73.7017 26.791C73.5126 26.6599 73.3686 26.4788 73.288 26.2705C72.7157 25.0486 71.5075 24.9884 70.2896 25.6179C67.4771 27.0758 64.6597 24.3219 66.1271 21.6421C68.6266 17.0833 76.0124 18.4255 76.2423 24.0674C76.2193 24.885 75.955 25.6802 75.4793 26.363Z" fill="white" fill-opacity="0.8"/>
<path fill-rule="evenodd" clip-rule="evenodd" d="M113.944 20.1332C113.91 19.8601 113.876 19.5778 113.832 19.3047C113.637 18.0749 113.026 16.938 112.091 16.0649C111.496 15.5226 110.793 15.0974 110.023 14.8138C109.253 14.5302 108.431 14.3938 107.605 14.4125C105.37 14.3848 103.13 14.4125 100.894 14.4125C100.577 14.4125 100.518 14.5144 100.518 14.7874C100.518 21.0573 100.518 27.3287 100.518 33.6016C100.518 33.8932 100.601 33.9765 100.904 33.9718C102.083 33.9718 103.272 33.9718 104.446 33.9718C104.505 33.8245 104.522 33.6646 104.494 33.509V27.4135C104.494 26.909 104.494 26.9137 104.984 26.9044C105.933 26.9044 106.881 26.9044 107.83 26.9044C108.744 26.8728 109.642 26.6682 110.472 26.3027C112.682 25.2752 113.724 23.5026 113.93 21.2116C113.97 20.8609 113.97 20.507 113.93 20.1563L113.944 20.1332ZM109.718 22.2714C109.568 22.7603 109.247 23.1862 108.807 23.4789C108.366 23.7717 107.834 23.9139 107.297 23.8821C106.505 23.8821 105.708 23.859 104.91 23.8821C104.529 23.8821 104.45 23.7618 104.46 23.4193C104.485 22.4936 104.46 21.5263 104.46 20.5867C104.46 19.6472 104.46 18.666 104.46 17.7079C104.46 17.4395 104.524 17.3469 104.817 17.3562C105.522 17.3562 106.226 17.3562 106.93 17.3562C108.696 17.3562 109.552 18.0134 109.904 19.6703C110.114 20.5374 110.049 21.4435 109.718 22.2761V22.2714Z" fill="white" fill-opacity="0.8"/>
<path d="M4.05114 68.1818C4.05114 67.572 4.20076 67.0152 4.5 66.5114C4.79924 66.0076 5.19886 65.608 5.69886 65.3125C6.20265 65.0133 6.75947 64.8636 7.36932 64.8636C7.89962 64.8636 8.39015 64.9792 8.84091 65.2102C9.29167 65.4375 9.66477 65.75 9.96023 66.1477C10.2557 66.5455 10.4356 66.9924 10.5 67.4886H9.02273C8.95455 67.1364 8.76136 66.8485 8.44318 66.625C8.12879 66.3977 7.77083 66.2841 7.36932 66.2841C7.02083 66.2841 6.70265 66.3693 6.41477 66.5398C6.12689 66.7102 5.89773 66.9394 5.72727 67.2273C5.55682 67.5114 5.47159 67.8295 5.47159 68.1818C5.47159 68.5303 5.55682 68.8485 5.72727 69.1364C5.89773 69.4242 6.12689 69.6534 6.41477 69.8239C6.70265 69.9943 7.02083 70.0795 7.36932 70.0795C7.77083 70.0795 8.11364 69.9678 8.39773 69.7443C8.68182 69.517 8.85985 69.2273 8.93182 68.875H10.4091C10.3447 69.3712 10.1723 69.8182 9.89205 70.2159C9.61174 70.6136 9.25379 70.928 8.81818 71.1591C8.38258 71.3864 7.89962 71.5 7.36932 71.5C6.75947 71.5 6.20265 71.3523 5.69886 71.0568C5.19886 70.7576 4.79924 70.3561 4.5 69.8523C4.20076 69.3485 4.05114 68.7917 4.05114 68.1818ZM7.31818 74.1818C6.49242 74.1818 5.71591 74.0265 4.98864 73.7159C4.26515 73.4053 3.62689 72.9754 3.07386 72.4261C2.52462 71.8731 2.0928 71.2348 1.77841 70.5114C1.4678 69.7879 1.31439 69.0114 1.31818 68.1818C1.32197 67.3523 1.47917 66.5758 1.78977 65.8523C2.10417 65.1288 2.53598 64.4924 3.08523 63.9432C3.63447 63.3902 4.27083 62.9583 4.99432 62.6477C5.7178 62.3371 6.49242 62.1818 7.31818 62.1818C8.14773 62.1818 8.92424 62.3371 9.64773 62.6477C10.375 62.9583 11.0114 63.3902 11.5568 63.9432C12.1061 64.4924 12.536 65.1288 12.8466 65.8523C13.1572 66.5758 13.3144 67.3523 13.3182 68.1818C13.322 69.0114 13.1686 69.7879 12.858 70.5114C12.5473 71.2348 12.1174 71.8731 11.5682 72.4261C11.0189 72.9754 10.3807 73.4053 9.65341 73.7159C8.92614 74.0265 8.14773 74.1818 7.31818 74.1818ZM7.31818 72.6705C7.93939 72.6705 8.52273 72.5549 9.06818 72.3239C9.61364 72.0928 10.0909 71.7727 10.5 71.3636C10.9129 70.9508 11.2348 70.4735 11.4659 69.9318C11.697 69.3864 11.8106 68.8049 11.8068 68.1875C11.8068 67.5663 11.6894 66.983 11.4545 66.4375C11.2235 65.892 10.9015 65.4148 10.4886 65.0057C10.0795 64.5928 9.60417 64.2708 9.0625 64.0398C8.52083 63.8087 7.93939 63.6932 7.31818 63.6932C6.70076 63.6932 6.12121 63.8087 5.57955 64.0398C5.03788 64.2708 4.56061 64.5928 4.14773 65.0057C3.73864 65.4186 3.41667 65.8977 3.18182 66.4432C2.94697 66.9848 2.82955 67.5663 2.82955 68.1875C2.82576 68.8011 2.93939 69.3807 3.17045 69.9261C3.4053 70.4678 3.72727 70.9451 4.13636 71.358C4.54924 71.767 5.02652 72.089 5.56818 72.3239C6.11364 72.5549 6.69697 72.6705 7.31818 72.6705ZM19.9943 74V72.7273L23.9318 68.6477C24.3523 68.2045 24.6989 67.8163 24.9716 67.483C25.2481 67.1458 25.4545 66.8258 25.5909 66.5227C25.7273 66.2197 25.7955 65.8977 25.7955 65.5568C25.7955 65.1705 25.7045 64.8371 25.5227 64.5568C25.3409 64.2727 25.0928 64.0549 24.7784 63.9034C24.464 63.7481 24.1098 63.6705 23.7159 63.6705C23.2992 63.6705 22.9356 63.7557 22.625 63.9261C22.3144 64.0966 22.0758 64.3371 21.9091 64.6477C21.7424 64.9583 21.6591 65.322 21.6591 65.7386H19.983C19.983 65.0303 20.1458 64.411 20.4716 63.8807C20.7973 63.3504 21.2443 62.9394 21.8125 62.6477C22.3807 62.3523 23.0265 62.2045 23.75 62.2045C24.4811 62.2045 25.125 62.3504 25.6818 62.642C26.2424 62.9299 26.6799 63.3239 26.9943 63.8239C27.3087 64.3201 27.4659 64.8807 27.4659 65.5057C27.4659 65.9375 27.3845 66.3598 27.2216 66.7727C27.0625 67.1856 26.7841 67.6458 26.3864 68.1534C25.9886 68.6572 25.4356 69.2689 24.7273 69.9886L22.4148 72.4091V72.4943H27.6534V74H19.9943ZM33.858 74.1932C32.9602 74.1894 32.1932 73.9527 31.5568 73.483C30.9205 73.0133 30.4337 72.3295 30.0966 71.4318C29.7595 70.5341 29.5909 69.4527 29.5909 68.1875C29.5909 66.9261 29.7595 65.8485 30.0966 64.9545C30.4375 64.0606 30.9261 63.3788 31.5625 62.9091C32.2027 62.4394 32.9678 62.2045 33.858 62.2045C34.7481 62.2045 35.5114 62.4413 36.1477 62.9148C36.7841 63.3845 37.2708 64.0663 37.608 64.9602C37.9489 65.8504 38.1193 66.9261 38.1193 68.1875C38.1193 69.4564 37.9508 70.5398 37.6136 71.4375C37.2765 72.3314 36.7898 73.0152 36.1534 73.4886C35.517 73.9583 34.7519 74.1932 33.858 74.1932ZM33.858 72.6761C34.6458 72.6761 35.2614 72.2917 35.7045 71.5227C36.1515 70.7538 36.375 69.642 36.375 68.1875C36.375 67.2216 36.2727 66.4053 36.0682 65.7386C35.8674 65.0682 35.5777 64.5606 35.1989 64.2159C34.8239 63.8674 34.3769 63.6932 33.858 63.6932C33.0739 63.6932 32.4583 64.0795 32.0114 64.8523C31.5644 65.625 31.339 66.7367 31.3352 68.1875C31.3352 69.1572 31.4356 69.9773 31.6364 70.6477C31.8409 71.3144 32.1307 71.8201 32.5057 72.1648C32.8807 72.5057 33.3314 72.6761 33.858 72.6761ZM40.1349 74V72.7273L44.0724 68.6477C44.4929 68.2045 44.8395 67.8163 45.1122 67.483C45.3887 67.1458 45.5952 66.8258 45.7315 66.5227C45.8679 66.2197 45.9361 65.8977 45.9361 65.5568C45.9361 65.1705 45.8452 64.8371 45.6634 64.5568C45.4815 64.2727 45.2334 64.0549 44.919 63.9034C44.6046 63.7481 44.2505 63.6705 43.8565 63.6705C43.4399 63.6705 43.0762 63.7557 42.7656 63.9261C42.455 64.0966 42.2164 64.3371 42.0497 64.6477C41.883 64.9583 41.7997 65.322 41.7997 65.7386H40.1236C40.1236 65.0303 40.2865 64.411 40.6122 63.8807C40.938 63.3504 41.3849 62.9394 41.9531 62.6477C42.5213 62.3523 43.1671 62.2045 43.8906 62.2045C44.6217 62.2045 45.2656 62.3504 45.8224 62.642C46.383 62.9299 46.8205 63.3239 47.1349 63.8239C47.4493 64.3201 47.6065 64.8807 47.6065 65.5057C47.6065 65.9375 47.5251 66.3598 47.3622 66.7727C47.2031 67.1856 46.9247 67.6458 46.527 68.1534C46.1293 68.6572 45.5762 69.2689 44.8679 69.9886L42.5554 72.4091V72.4943H47.794V74H40.1349ZM49.9474 74V72.7273L53.8849 68.6477C54.3054 68.2045 54.652 67.8163 54.9247 67.483C55.2012 67.1458 55.4077 66.8258 55.544 66.5227C55.6804 66.2197 55.7486 65.8977 55.7486 65.5568C55.7486 65.1705 55.6577 64.8371 55.4759 64.5568C55.294 64.2727 55.0459 64.0549 54.7315 63.9034C54.4171 63.7481 54.063 63.6705 53.669 63.6705C53.2524 63.6705 52.8887 63.7557 52.5781 63.9261C52.2675 64.0966 52.0289 64.3371 51.8622 64.6477C51.6955 64.9583 51.6122 65.322 51.6122 65.7386H49.9361C49.9361 65.0303 50.099 64.411 50.4247 63.8807C50.7505 63.3504 51.1974 62.9394 51.7656 62.6477C52.3338 62.3523 52.9796 62.2045 53.7031 62.2045C54.4342 62.2045 55.0781 62.3504 55.6349 62.642C56.1955 62.9299 56.633 63.3239 56.9474 63.8239C57.2618 64.3201 57.419 64.8807 57.419 65.5057C57.419 65.9375 57.3376 66.3598 57.1747 66.7727C57.0156 67.1856 56.7372 67.6458 56.3395 68.1534C55.9418 68.6572 55.3887 69.2689 54.6804 69.9886L52.3679 72.4091V72.4943H57.6065V74H49.9474ZM73.8182 66.1477H72.0455C71.9773 65.7689 71.8504 65.4356 71.6648 65.1477C71.4792 64.8598 71.2519 64.6155 70.983 64.4148C70.714 64.214 70.4129 64.0625 70.0795 63.9602C69.75 63.858 69.3996 63.8068 69.0284 63.8068C68.358 63.8068 67.7576 63.9754 67.2273 64.3125C66.7008 64.6496 66.2841 65.1439 65.9773 65.7955C65.6742 66.447 65.5227 67.2424 65.5227 68.1818C65.5227 69.1288 65.6742 69.928 65.9773 70.5795C66.2841 71.2311 66.7027 71.7235 67.233 72.0568C67.7633 72.3902 68.3598 72.5568 69.0227 72.5568C69.3902 72.5568 69.7386 72.5076 70.0682 72.4091C70.4015 72.3068 70.7027 72.1572 70.9716 71.9602C71.2405 71.7633 71.4678 71.5227 71.6534 71.2386C71.8428 70.9508 71.9735 70.6212 72.0455 70.25L73.8182 70.2557C73.7235 70.8277 73.5398 71.3542 73.267 71.8352C72.9981 72.3125 72.6515 72.7254 72.2273 73.0739C71.8068 73.4186 71.3258 73.6856 70.7841 73.875C70.2424 74.0644 69.6515 74.1591 69.0114 74.1591C68.0038 74.1591 67.1061 73.9205 66.3182 73.4432C65.5303 72.9621 64.9091 72.2746 64.4545 71.3807C64.0038 70.4867 63.7784 69.4205 63.7784 68.1818C63.7784 66.9394 64.0057 65.8731 64.4602 64.983C64.9148 64.089 65.536 63.4034 66.3239 62.9261C67.1117 62.4451 68.0076 62.2045 69.0114 62.2045C69.6288 62.2045 70.2045 62.2936 70.7386 62.4716C71.2765 62.6458 71.7595 62.9034 72.1875 63.2443C72.6155 63.5814 72.9697 63.9943 73.25 64.483C73.5303 64.9678 73.7197 65.5227 73.8182 66.1477ZM86.027 68.1818C86.027 69.4242 85.7997 70.4924 85.3452 71.3864C84.8906 72.2765 84.2675 72.9621 83.4759 73.4432C82.688 73.9205 81.7921 74.1591 80.7884 74.1591C79.7808 74.1591 78.8812 73.9205 78.0895 73.4432C77.3016 72.9621 76.6804 72.2746 76.2259 71.3807C75.7713 70.4867 75.544 69.4205 75.544 68.1818C75.544 66.9394 75.7713 65.8731 76.2259 64.983C76.6804 64.089 77.3016 63.4034 78.0895 62.9261C78.8812 62.4451 79.7808 62.2045 80.7884 62.2045C81.7921 62.2045 82.688 62.4451 83.4759 62.9261C84.2675 63.4034 84.8906 64.089 85.3452 64.983C85.7997 65.8731 86.027 66.9394 86.027 68.1818ZM84.2884 68.1818C84.2884 67.2348 84.1349 66.4375 83.8281 65.7898C83.5251 65.1383 83.1084 64.6458 82.5781 64.3125C82.0516 63.9754 81.455 63.8068 80.7884 63.8068C80.1179 63.8068 79.5194 63.9754 78.9929 64.3125C78.4664 64.6458 78.0497 65.1383 77.7429 65.7898C77.4399 66.4375 77.2884 67.2348 77.2884 68.1818C77.2884 69.1288 77.4399 69.928 77.7429 70.5795C78.0497 71.2273 78.4664 71.7197 78.9929 72.0568C79.5194 72.3902 80.1179 72.5568 80.7884 72.5568C81.455 72.5568 82.0516 72.3902 82.5781 72.0568C83.1084 71.7197 83.5251 71.2273 83.8281 70.5795C84.1349 69.928 84.2884 69.1288 84.2884 68.1818ZM88.2159 62.3636H90.3466L94.0511 71.4091H94.1875L97.892 62.3636H100.023V74H98.3523V65.5795H98.2443L94.8125 73.983H93.4261L89.9943 65.5739H89.8864V74H88.2159V62.3636ZM102.575 74V62.3636H106.723C107.628 62.3636 108.378 62.5284 108.973 62.858C109.568 63.1875 110.013 63.6383 110.308 64.2102C110.604 64.7784 110.751 65.4186 110.751 66.1307C110.751 66.8466 110.602 67.4905 110.303 68.0625C110.007 68.6307 109.56 69.0814 108.962 69.4148C108.367 69.7443 107.619 69.9091 106.717 69.9091H103.865V68.4205H106.558C107.13 68.4205 107.594 68.322 107.95 68.125C108.306 67.9242 108.568 67.6515 108.734 67.3068C108.901 66.9621 108.984 66.5701 108.984 66.1307C108.984 65.6913 108.901 65.3011 108.734 64.9602C108.568 64.6193 108.304 64.3523 107.945 64.1591C107.589 63.9659 107.119 63.8693 106.536 63.8693H104.331V74H102.575ZM112.81 74V62.3636H120.026V63.875H114.565V67.4205H119.509V68.9261H114.565V74H112.81ZM122.185 74V62.3636H129.48V63.875H123.94V67.4205H129.099V68.9261H123.94V72.4886H129.548V74H122.185ZM138.172 65.4205C138.111 64.8826 137.861 64.4659 137.422 64.1705C136.982 63.8712 136.429 63.7216 135.763 63.7216C135.286 63.7216 134.873 63.7973 134.524 63.9489C134.176 64.0966 133.905 64.3011 133.712 64.5625C133.522 64.8201 133.428 65.1136 133.428 65.4432C133.428 65.7197 133.492 65.9583 133.621 66.1591C133.753 66.3598 133.926 66.5284 134.138 66.6648C134.354 66.7973 134.585 66.9091 134.831 67C135.077 67.0871 135.314 67.1591 135.541 67.2159L136.678 67.5114C137.049 67.6023 137.429 67.7254 137.82 67.8807C138.21 68.036 138.571 68.2405 138.905 68.4943C139.238 68.7481 139.507 69.0625 139.712 69.4375C139.92 69.8125 140.024 70.2614 140.024 70.7841C140.024 71.4432 139.854 72.0284 139.513 72.5398C139.176 73.0511 138.685 73.4545 138.041 73.75C137.401 74.0455 136.626 74.1932 135.717 74.1932C134.846 74.1932 134.092 74.0549 133.456 73.7784C132.82 73.5019 132.321 73.1098 131.962 72.6023C131.602 72.0909 131.403 71.4848 131.365 70.7841H133.126C133.161 71.2045 133.297 71.5549 133.536 71.8352C133.778 72.1117 134.087 72.3182 134.462 72.4545C134.84 72.5871 135.255 72.6534 135.706 72.6534C136.202 72.6534 136.643 72.5758 137.03 72.4205C137.42 72.2614 137.727 72.0417 137.95 71.7614C138.174 71.4773 138.286 71.1458 138.286 70.767C138.286 70.4223 138.187 70.1402 137.99 69.9205C137.797 69.7008 137.534 69.5189 137.2 69.375C136.871 69.2311 136.498 69.1042 136.081 68.9943L134.706 68.6193C133.774 68.3655 133.036 67.9924 132.49 67.5C131.948 67.0076 131.678 66.3561 131.678 65.5455C131.678 64.875 131.859 64.2898 132.223 63.7898C132.587 63.2898 133.079 62.9015 133.7 62.625C134.321 62.3447 135.022 62.2045 135.803 62.2045C136.59 62.2045 137.286 62.3428 137.888 62.6193C138.494 62.8958 138.971 63.2765 139.32 63.7614C139.668 64.2424 139.85 64.7955 139.865 65.4205H138.172ZM141.548 63.875V62.3636H150.554V63.875H146.923V74H145.173V63.875H141.548ZM152.98 74.108C152.67 74.108 152.402 73.9981 152.179 73.7784C151.955 73.5549 151.844 73.286 151.844 72.9716C151.844 72.661 151.955 72.3958 152.179 72.1761C152.402 71.9527 152.67 71.8409 152.98 71.8409C153.291 71.8409 153.558 71.9527 153.781 72.1761C154.005 72.3958 154.116 72.661 154.116 72.9716C154.116 73.1799 154.063 73.3712 153.957 73.5455C153.855 73.7159 153.719 73.8523 153.548 73.9545C153.378 74.0568 153.188 74.108 152.98 74.108ZM161.558 74H159.695L163.882 62.3636H165.911L170.098 74H168.234L164.945 64.4773H164.854L161.558 74ZM161.871 69.4432H167.916V70.9205H161.871V69.4432ZM173.341 62.3636V74H171.642V62.3636H173.341ZM177.325 62.3636V74H175.626V62.3636H177.325ZM183.845 74V65.2727H185.487V66.6591H185.578C185.737 66.1894 186.018 65.8201 186.419 65.5511C186.824 65.2784 187.283 65.142 187.794 65.142C187.9 65.142 188.025 65.1458 188.169 65.1534C188.317 65.161 188.432 65.1705 188.516 65.1818V66.8068C188.447 66.7879 188.326 66.767 188.152 66.7443C187.978 66.7178 187.804 66.7045 187.629 66.7045C187.228 66.7045 186.87 66.7898 186.555 66.9602C186.245 67.1269 185.999 67.3598 185.817 67.6591C185.635 67.9545 185.544 68.2917 185.544 68.6705V74H183.845ZM189.986 74V65.2727H191.685V74H189.986ZM190.844 63.9261C190.548 63.9261 190.295 63.8277 190.082 63.6307C189.874 63.4299 189.77 63.1913 189.77 62.9148C189.77 62.6345 189.874 62.3958 190.082 62.1989C190.295 61.9981 190.548 61.8977 190.844 61.8977C191.139 61.8977 191.391 61.9981 191.599 62.1989C191.812 62.3958 191.918 62.6345 191.918 62.9148C191.918 63.1913 191.812 63.4299 191.599 63.6307C191.391 63.8277 191.139 63.9261 190.844 63.9261ZM197.629 77.4545C196.936 77.4545 196.339 77.3636 195.839 77.1818C195.343 77 194.938 76.7595 194.624 76.4602C194.309 76.161 194.074 75.8333 193.919 75.4773L195.379 74.875C195.482 75.0417 195.618 75.2178 195.788 75.4034C195.963 75.5928 196.197 75.7538 196.493 75.8864C196.792 76.0189 197.177 76.0852 197.646 76.0852C198.29 76.0852 198.822 75.928 199.243 75.6136C199.663 75.303 199.874 74.8068 199.874 74.125V72.4091H199.766C199.663 72.5947 199.516 72.8011 199.322 73.0284C199.133 73.2557 198.872 73.4527 198.538 73.6193C198.205 73.786 197.771 73.8693 197.237 73.8693C196.548 73.8693 195.927 73.7083 195.374 73.3864C194.824 73.0606 194.389 72.5814 194.067 71.9489C193.749 71.3125 193.589 70.5303 193.589 69.6023C193.589 68.6742 193.747 67.8788 194.061 67.2159C194.379 66.553 194.815 66.0455 195.368 65.6932C195.921 65.3371 196.548 65.1591 197.249 65.1591C197.79 65.1591 198.228 65.25 198.561 65.4318C198.894 65.6098 199.154 65.8182 199.339 66.0568C199.529 66.2955 199.675 66.5057 199.777 66.6875H199.902V65.2727H201.567V74.1932C201.567 74.9432 201.393 75.5587 201.044 76.0398C200.696 76.5208 200.224 76.8769 199.629 77.108C199.038 77.339 198.372 77.4545 197.629 77.4545ZM197.612 72.4602C198.101 72.4602 198.514 72.3466 198.851 72.1193C199.192 71.8883 199.449 71.5587 199.624 71.1307C199.802 70.6989 199.891 70.1818 199.891 69.5795C199.891 68.9924 199.804 68.4754 199.629 68.0284C199.455 67.5814 199.199 67.233 198.862 66.983C198.525 66.7292 198.108 66.6023 197.612 66.6023C197.101 66.6023 196.675 66.7348 196.334 67C195.993 67.2614 195.735 67.6174 195.561 68.0682C195.391 68.5189 195.305 69.0227 195.305 69.5795C195.305 70.1515 195.393 70.6534 195.567 71.0852C195.741 71.517 195.999 71.8542 196.339 72.0966C196.684 72.339 197.108 72.4602 197.612 72.4602ZM205.544 68.8182V74H203.845V62.3636H205.521V66.6932H205.629C205.834 66.2235 206.146 65.8504 206.567 65.5739C206.987 65.2973 207.536 65.1591 208.214 65.1591C208.813 65.1591 209.336 65.2822 209.783 65.5284C210.233 65.7746 210.582 66.142 210.828 66.6307C211.078 67.1155 211.203 67.7216 211.203 68.4489V74H209.504V68.6534C209.504 68.0133 209.339 67.517 209.01 67.1648C208.68 66.8087 208.222 66.6307 207.635 66.6307C207.233 66.6307 206.874 66.7159 206.555 66.8864C206.241 67.0568 205.993 67.3068 205.811 67.6364C205.633 67.9621 205.544 68.3561 205.544 68.8182ZM217.544 65.2727V66.6364H212.777V65.2727H217.544ZM214.055 63.1818H215.754V71.4375C215.754 71.767 215.804 72.0152 215.902 72.1818C216 72.3447 216.127 72.4564 216.283 72.517C216.442 72.5739 216.614 72.6023 216.8 72.6023C216.936 72.6023 217.055 72.5928 217.158 72.5739C217.26 72.5549 217.339 72.5398 217.396 72.5284L217.703 73.9318C217.605 73.9697 217.464 74.0076 217.283 74.0455C217.101 74.0871 216.874 74.1098 216.601 74.1136C216.154 74.1212 215.737 74.0417 215.351 73.875C214.964 73.7083 214.652 73.4508 214.413 73.1023C214.175 72.7538 214.055 72.3163 214.055 71.7898V63.1818ZM225.822 67.4034L224.283 67.6761C224.218 67.4792 224.116 67.2917 223.976 67.1136C223.839 66.9356 223.654 66.7898 223.419 66.6761C223.184 66.5625 222.891 66.5057 222.538 66.5057C222.057 66.5057 221.656 66.6136 221.334 66.8295C221.012 67.0417 220.851 67.3163 220.851 67.6534C220.851 67.9451 220.959 68.1799 221.175 68.358C221.391 68.536 221.739 68.6818 222.22 68.7955L223.607 69.1136C224.41 69.2992 225.008 69.5852 225.402 69.9716C225.796 70.358 225.993 70.8598 225.993 71.4773C225.993 72 225.841 72.4659 225.538 72.875C225.239 73.2803 224.821 73.5985 224.283 73.8295C223.749 74.0606 223.129 74.1761 222.425 74.1761C221.447 74.1761 220.65 73.9678 220.033 73.5511C219.415 73.1307 219.036 72.5341 218.896 71.7614L220.538 71.5114C220.641 71.9394 220.851 72.2633 221.169 72.483C221.487 72.6989 221.902 72.8068 222.413 72.8068C222.97 72.8068 223.415 72.6913 223.749 72.4602C224.082 72.2254 224.249 71.9394 224.249 71.6023C224.249 71.3295 224.146 71.1004 223.942 70.9148C223.741 70.7292 223.432 70.589 223.016 70.4943L221.538 70.1705C220.724 69.9848 220.122 69.6894 219.732 69.2841C219.345 68.8788 219.152 68.3655 219.152 67.7443C219.152 67.2292 219.296 66.7784 219.584 66.392C219.872 66.0057 220.269 65.7045 220.777 65.4886C221.285 65.2689 221.866 65.1591 222.521 65.1591C223.464 65.1591 224.207 65.3636 224.749 65.7727C225.29 66.178 225.648 66.7216 225.822 67.4034ZM232.095 74V65.2727H233.737V66.6591H233.828C233.987 66.1894 234.268 65.8201 234.669 65.5511C235.074 65.2784 235.533 65.142 236.044 65.142C236.15 65.142 236.275 65.1458 236.419 65.1534C236.567 65.161 236.682 65.1705 236.766 65.1818V66.8068C236.697 66.7879 236.576 66.767 236.402 66.7443C236.228 66.7178 236.054 66.7045 235.879 66.7045C235.478 66.7045 235.12 66.7898 234.805 66.9602C234.495 67.1269 234.249 67.3598 234.067 67.6591C233.885 67.9545 233.794 68.2917 233.794 68.6705V74H232.095ZM241.685 74.1761C240.825 74.1761 240.084 73.9924 239.463 73.625C238.846 73.2538 238.368 72.733 238.031 72.0625C237.698 71.3883 237.531 70.5985 237.531 69.6932C237.531 68.7992 237.698 68.0114 238.031 67.3295C238.368 66.6477 238.838 66.1155 239.44 65.733C240.046 65.3504 240.755 65.1591 241.565 65.1591C242.058 65.1591 242.535 65.2405 242.997 65.4034C243.459 65.5663 243.874 65.822 244.241 66.1705C244.609 66.5189 244.899 66.9716 245.111 67.5284C245.323 68.0814 245.429 68.7538 245.429 69.5455V70.1477H238.491V68.875H243.764C243.764 68.428 243.673 68.0322 243.491 67.6875C243.31 67.339 243.054 67.0644 242.724 66.8636C242.399 66.6629 242.016 66.5625 241.577 66.5625C241.099 66.5625 240.683 66.6799 240.327 66.9148C239.974 67.1458 239.702 67.4489 239.509 67.8239C239.319 68.1951 239.224 68.5985 239.224 69.0341V70.0284C239.224 70.6117 239.327 71.108 239.531 71.517C239.74 71.9261 240.029 72.2386 240.401 72.4545C240.772 72.6667 241.205 72.7727 241.702 72.7727C242.024 72.7727 242.317 72.7273 242.582 72.6364C242.848 72.5417 243.077 72.4015 243.27 72.2159C243.463 72.0303 243.611 71.8011 243.713 71.5284L245.321 71.8182C245.192 72.2917 244.961 72.7064 244.628 73.0625C244.298 73.4148 243.884 73.6894 243.384 73.8864C242.887 74.0795 242.321 74.1761 241.685 74.1761ZM253.854 67.4034L252.314 67.6761C252.25 67.4792 252.147 67.2917 252.007 67.1136C251.871 66.9356 251.685 66.7898 251.45 66.6761C251.215 66.5625 250.922 66.5057 250.57 66.5057C250.089 66.5057 249.687 66.6136 249.365 66.8295C249.043 67.0417 248.882 67.3163 248.882 67.6534C248.882 67.9451 248.99 68.1799 249.206 68.358C249.422 68.536 249.77 68.6818 250.251 68.7955L251.638 69.1136C252.441 69.2992 253.039 69.5852 253.433 69.9716C253.827 70.358 254.024 70.8598 254.024 71.4773C254.024 72 253.873 72.4659 253.57 72.875C253.27 73.2803 252.852 73.5985 252.314 73.8295C251.78 74.0606 251.161 74.1761 250.456 74.1761C249.479 74.1761 248.681 73.9678 248.064 73.5511C247.446 73.1307 247.068 72.5341 246.928 71.7614L248.57 71.5114C248.672 71.9394 248.882 72.2633 249.2 72.483C249.518 72.6989 249.933 72.8068 250.445 72.8068C251.001 72.8068 251.446 72.6913 251.78 72.4602C252.113 72.2254 252.28 71.9394 252.28 71.6023C252.28 71.3295 252.178 71.1004 251.973 70.9148C251.772 70.7292 251.464 70.589 251.047 70.4943L249.57 70.1705C248.755 69.9848 248.153 69.6894 247.763 69.2841C247.376 68.8788 247.183 68.3655 247.183 67.7443C247.183 67.2292 247.327 66.7784 247.615 66.392C247.903 66.0057 248.301 65.7045 248.808 65.4886C249.316 65.2689 249.897 65.1591 250.553 65.1591C251.496 65.1591 252.238 65.3636 252.78 65.7727C253.321 66.178 253.679 66.7216 253.854 67.4034ZM259.653 74.1761C258.794 74.1761 258.053 73.9924 257.432 73.625C256.814 73.2538 256.337 72.733 256 72.0625C255.667 71.3883 255.5 70.5985 255.5 69.6932C255.5 68.7992 255.667 68.0114 256 67.3295C256.337 66.6477 256.807 66.1155 257.409 65.733C258.015 65.3504 258.723 65.1591 259.534 65.1591C260.027 65.1591 260.504 65.2405 260.966 65.4034C261.428 65.5663 261.843 65.822 262.21 66.1705C262.578 66.5189 262.867 66.9716 263.08 67.5284C263.292 68.0814 263.398 68.7538 263.398 69.5455V70.1477H256.46V68.875H261.733C261.733 68.428 261.642 68.0322 261.46 67.6875C261.278 67.339 261.023 67.0644 260.693 66.8636C260.367 66.6629 259.985 66.5625 259.545 66.5625C259.068 66.5625 258.652 66.6799 258.295 66.9148C257.943 67.1458 257.67 67.4489 257.477 67.8239C257.288 68.1951 257.193 68.5985 257.193 69.0341V70.0284C257.193 70.6117 257.295 71.108 257.5 71.517C257.708 71.9261 257.998 72.2386 258.369 72.4545C258.741 72.6667 259.174 72.7727 259.67 72.7727C259.992 72.7727 260.286 72.7273 260.551 72.6364C260.816 72.5417 261.045 72.4015 261.239 72.2159C261.432 72.0303 261.58 71.8011 261.682 71.5284L263.29 71.8182C263.161 72.2917 262.93 72.7064 262.597 73.0625C262.267 73.4148 261.852 73.6894 261.352 73.8864C260.856 74.0795 260.29 74.1761 259.653 74.1761ZM265.283 74V65.2727H266.925V66.6591H267.016C267.175 66.1894 267.455 65.8201 267.857 65.5511C268.262 65.2784 268.72 65.142 269.232 65.142C269.338 65.142 269.463 65.1458 269.607 65.1534C269.754 65.161 269.87 65.1705 269.953 65.1818V66.8068C269.885 66.7879 269.764 66.767 269.589 66.7443C269.415 66.7178 269.241 66.7045 269.067 66.7045C268.665 66.7045 268.307 66.7898 267.993 66.9602C267.682 67.1269 267.436 67.3598 267.254 67.6591C267.072 67.9545 266.982 68.2917 266.982 68.6705V74H265.283ZM279.155 65.2727L275.99 74H274.172L271.001 65.2727H272.825L275.036 71.9886H275.126L277.331 65.2727H279.155ZM284.216 74.1761C283.356 74.1761 282.616 73.9924 281.994 73.625C281.377 73.2538 280.9 72.733 280.562 72.0625C280.229 71.3883 280.062 70.5985 280.062 69.6932C280.062 68.7992 280.229 68.0114 280.562 67.3295C280.9 66.6477 281.369 66.1155 281.972 65.733C282.578 65.3504 283.286 65.1591 284.097 65.1591C284.589 65.1591 285.066 65.2405 285.528 65.4034C285.991 65.5663 286.405 65.822 286.773 66.1705C287.14 66.5189 287.43 66.9716 287.642 67.5284C287.854 68.0814 287.96 68.7538 287.96 69.5455V70.1477H281.023V68.875H286.295C286.295 68.428 286.205 68.0322 286.023 67.6875C285.841 67.339 285.585 67.0644 285.256 66.8636C284.93 66.6629 284.547 66.5625 284.108 66.5625C283.631 66.5625 283.214 66.6799 282.858 66.9148C282.506 67.1458 282.233 67.4489 282.04 67.8239C281.85 68.1951 281.756 68.5985 281.756 69.0341V70.0284C281.756 70.6117 281.858 71.108 282.062 71.517C282.271 71.9261 282.561 72.2386 282.932 72.4545C283.303 72.6667 283.737 72.7727 284.233 72.7727C284.555 72.7727 284.848 72.7273 285.114 72.6364C285.379 72.5417 285.608 72.4015 285.801 72.2159C285.994 72.0303 286.142 71.8011 286.244 71.5284L287.852 71.8182C287.723 72.2917 287.492 72.7064 287.159 73.0625C286.83 73.4148 286.415 73.6894 285.915 73.8864C285.419 74.0795 284.852 74.1761 284.216 74.1761ZM293.112 74.1705C292.408 74.1705 291.779 73.9905 291.226 73.6307C290.677 73.267 290.245 72.75 289.93 72.0795C289.62 71.4053 289.464 70.5966 289.464 69.6534C289.464 68.7102 289.622 67.9034 289.936 67.233C290.254 66.5625 290.69 66.0492 291.243 65.6932C291.796 65.3371 292.423 65.1591 293.124 65.1591C293.665 65.1591 294.101 65.25 294.43 65.4318C294.764 65.6098 295.021 65.8182 295.203 66.0568C295.389 66.2955 295.533 66.5057 295.635 66.6875H295.737V62.3636H297.436V74H295.777V72.642H295.635C295.533 72.8277 295.385 73.0398 295.192 73.2784C295.002 73.517 294.741 73.7254 294.408 73.9034C294.074 74.0814 293.643 74.1705 293.112 74.1705ZM293.487 72.7216C293.976 72.7216 294.389 72.5928 294.726 72.3352C295.067 72.0739 295.324 71.7121 295.499 71.25C295.677 70.7879 295.766 70.25 295.766 69.6364C295.766 69.0303 295.679 68.5 295.504 68.0455C295.33 67.5909 295.074 67.2367 294.737 66.983C294.4 66.7292 293.983 66.6023 293.487 66.6023C292.976 66.6023 292.55 66.7348 292.209 67C291.868 67.2652 291.61 67.6269 291.436 68.0852C291.266 68.5436 291.18 69.0606 291.18 69.6364C291.18 70.2197 291.268 70.7443 291.442 71.2102C291.616 71.6761 291.874 72.0455 292.214 72.3182C292.559 72.5871 292.983 72.7216 293.487 72.7216ZM300.98 74.108C300.67 74.108 300.402 73.9981 300.179 73.7784C299.955 73.5549 299.844 73.286 299.844 72.9716C299.844 72.661 299.955 72.3958 300.179 72.1761C300.402 71.9527 300.67 71.8409 300.98 71.8409C301.291 71.8409 301.558 71.9527 301.781 72.1761C302.005 72.3958 302.116 72.661 302.116 72.9716C302.116 73.1799 302.063 73.3712 301.957 73.5455C301.855 73.7159 301.719 73.8523 301.548 73.9545C301.378 74.0568 301.188 74.108 300.98 74.108Z" fill="white" fill-opacity="0.8"/>
</svg>
