<svg width="184" height="48" viewBox="0 0 184 48" fill="none" xmlns="http://www.w3.org/2000/svg">
<path fill-rule="evenodd" clip-rule="evenodd" d="M15.7645 35.0689C15.5341 35.0723 15.3042 35.0486 15.0793 34.9982C14.7194 34.899 14.384 34.7252 14.0944 34.488C13.704 34.1806 13.3884 33.7873 13.1718 33.3381C13.006 32.9692 12.9312 32.5652 12.9538 32.1608C12.959 32.0285 12.9773 31.897 13.0083 31.7683C13.0167 31.7336 13.0161 31.6974 13.0065 31.663C12.997 31.6287 12.9788 31.5973 12.9538 31.5721C12.6168 31.0838 12.3075 30.5768 12.0273 30.0533C12.0095 30.0281 12 29.9979 12 29.9669C12 29.936 12.0095 29.9058 12.0273 29.8806C12.1849 29.6259 12.3592 29.382 12.549 29.1506C12.7164 28.9466 12.8915 28.7582 13.0745 28.5619L13.1329 28.5031C13.203 28.4364 13.2497 28.4128 13.3236 28.5031C13.6896 29.0525 14.1022 29.5706 14.4915 30.0729C14.8263 30.485 15.1805 30.8853 15.5387 31.2817C15.8968 31.6781 16.2316 32.0234 16.5937 32.3727C17.0725 32.8397 17.5669 33.2871 18.0885 33.7031C18.5089 34.0406 18.9333 34.3625 19.3771 34.6607C19.4316 34.6961 19.416 34.7157 19.3771 34.751C18.9521 35.217 18.4738 35.6307 17.9523 35.9833C17.9376 35.9942 17.9199 36 17.9017 36C17.8835 36 17.8657 35.9942 17.8511 35.9833C17.3678 35.7078 16.9012 35.4038 16.4535 35.0728C16.4036 35.0224 16.341 34.9866 16.2724 34.9693C16.2038 34.952 16.1318 34.9539 16.0642 34.9747C15.9928 34.9924 15.9197 35.0029 15.8462 35.0061C15.8501 35.0689 15.8034 35.0493 15.7645 35.0689Z" fill="white"/>
<path fill-rule="evenodd" clip-rule="evenodd" d="M35.7894 20.7088C35.3918 18.45 34.2623 16.388 32.5778 14.8455C30.6502 13.003 28.0906 11.9835 25.4344 12.0002C24.8958 11.9971 24.3579 12.0404 23.8266 12.1297C22.6878 12.3101 21.5867 12.6801 20.5683 13.2247C20.0017 13.5256 19.4659 13.8818 18.9683 14.2882C18.6667 14.5328 18.3794 14.7949 18.108 15.0731C17.9017 15.289 17.6837 15.4931 17.489 15.7207C17.2944 15.9483 17.1698 16.0935 17.018 16.2858C16.7198 16.6696 16.4479 17.0735 16.2044 17.4946C15.8746 18.0598 15.5983 18.6551 15.3791 19.2724C15.2444 19.6475 15.1313 20.0302 15.0404 20.4184C14.947 20.8344 14.873 21.2543 14.8146 21.6743C14.7757 21.9294 14.7718 22.1923 14.7562 22.4592C14.7508 22.5056 14.7417 22.5516 14.729 22.5965V23.3815C14.7523 23.4364 14.729 23.4992 14.729 23.5581C14.7341 23.8775 14.7614 24.1962 14.8107 24.5117C14.8533 24.8488 14.9157 25.1829 14.9976 25.5125C14.9976 25.5792 15.0521 25.642 14.9976 25.7127C14.8574 25.8814 14.7134 26.0423 14.5771 26.215C14.3697 26.4798 14.1773 26.7563 14.001 27.0431C13.9868 27.0616 13.9791 27.0844 13.9791 27.1078C13.9791 27.1313 13.9868 27.154 14.001 27.1726C14.1567 27.4277 14.3046 27.6906 14.4642 27.9575C14.9129 28.6684 15.4057 29.35 15.9396 29.9983C16.255 30.3907 16.582 30.744 16.9129 31.1129C17.0725 31.2855 17.2438 31.4504 17.415 31.6113C17.5863 31.7722 17.8043 31.9841 18.0029 32.1646C18.2754 32.4119 18.5557 32.6434 18.8398 32.8789C19.2058 33.1772 19.5795 33.4598 19.9688 33.7266C20.3581 33.9935 20.7473 34.2486 21.1366 34.4841C21.1692 34.5105 21.2097 34.5249 21.2515 34.5249C21.2933 34.5249 21.3338 34.5105 21.3663 34.4841C21.7865 34.2082 22.1778 33.89 22.5342 33.5343C22.5653 33.5069 22.5926 33.4715 22.6354 33.4912C22.7082 33.5131 22.7823 33.5302 22.8573 33.5422C23.2301 33.6359 23.6085 33.7054 23.9901 33.7502C24.2704 33.7855 24.5585 33.7894 24.8465 33.809C24.9361 33.809 25.0256 33.809 25.1113 33.809C25.1902 33.8001 25.2698 33.8001 25.3487 33.809C25.4383 33.7855 25.5278 33.809 25.6134 33.809C25.8548 33.809 26.0923 33.7855 26.3297 33.758C26.9085 33.6921 27.4812 33.5806 28.0426 33.4244C28.9383 33.1717 29.796 32.7981 30.5924 32.3138C31.5176 31.7542 32.3525 31.0554 33.0683 30.2416C34.2474 28.9894 35.1102 27.4695 35.5838 25.8103C36.0575 24.1511 36.128 22.4013 35.7894 20.7088ZM31.6902 29.3429C30.5431 30.5399 29.0734 31.3721 27.4626 31.7369C26.7105 31.924 25.9359 32.0033 25.1619 31.9723C22.9965 31.9124 20.9311 31.0406 19.3693 29.5273C17.9773 28.2303 17.0402 26.513 16.6988 24.6334C16.4131 23.2685 16.4452 21.8555 16.7923 20.5052C17.1395 19.1549 17.7924 17.9041 18.6997 16.851C19.9361 15.3794 21.6334 14.3771 23.5113 14.0096C24.191 13.8595 24.887 13.7975 25.5823 13.8251C27.5128 13.8795 29.3703 14.581 30.861 15.8188C32.417 17.0743 33.5129 18.8173 33.9753 20.7716C34.1487 21.4975 34.2311 22.2424 34.2206 22.989C34.2371 25.362 33.3284 27.6466 31.6902 29.3507V29.3429Z" fill="white"/>
<path fill-rule="evenodd" clip-rule="evenodd" d="M25.2397 15.599C26.9229 15.5988 28.5557 16.1773 29.8687 17.2391C31.1816 18.3008 32.0961 19.7822 32.461 21.4387C32.893 23.2665 32.632 25.1911 31.7292 26.835C31.6373 27.0329 31.5237 27.2199 31.3905 27.3923C31.1989 27.6142 30.9529 27.7816 30.677 27.8775C30.4011 27.9735 30.1051 27.9947 29.8185 27.9391C29.5319 27.8834 29.2649 27.7529 29.0441 27.5605C28.8233 27.3681 28.6565 27.1206 28.5604 26.8428C28.3405 26.192 27.8766 25.6538 27.2679 25.3437C26.8349 25.11 26.3472 24.9987 25.8566 25.0215C25.3659 25.0443 24.8905 25.2003 24.4806 25.4732C23.9359 25.7969 23.3249 25.9907 22.6945 26.0398C22.064 26.0888 21.4308 25.9919 20.8432 25.7563C20.2557 25.5207 19.7293 25.1528 19.3045 24.6806C18.8797 24.2084 18.5676 23.6445 18.3922 23.0321C18.2219 22.4754 18.1652 21.8897 18.2254 21.3104C18.2856 20.731 18.4615 20.1699 18.7425 19.6609C19.2491 18.6502 19.9796 17.7706 20.8774 17.09C21.7752 16.4095 22.8163 15.9463 23.9201 15.7363C24.0758 15.701 24.2354 15.6814 24.395 15.6617C24.6748 15.621 24.957 15.6 25.2397 15.599ZM28.2567 29.8177C28.4994 29.7665 28.7231 29.6483 28.9029 29.4762C28.9988 29.3723 29.067 29.2455 29.1011 29.1078C29.1352 28.9701 29.1341 28.8259 29.0979 28.6887C29.0618 28.5515 28.9917 28.4258 28.8943 28.3233C28.7969 28.2208 28.6753 28.1449 28.5409 28.1026C28.3462 28.052 28.1695 27.9473 28.0309 27.8004C27.8768 27.6308 27.76 27.4302 27.6884 27.2118C27.572 26.9238 27.3626 26.6838 27.0942 26.5307C26.8257 26.3776 26.5139 26.3202 26.2091 26.368C26.0006 26.4062 25.8036 26.4918 25.6329 26.6184C25.4622 26.7449 25.3224 26.909 25.2241 27.0982C25.1257 27.2874 25.0715 27.4966 25.0654 27.7101C25.0594 27.9236 25.1017 28.1357 25.1891 28.3303C25.3842 28.8107 25.7186 29.2206 26.1486 29.5063C26.5785 29.7919 27.084 29.9402 27.5988 29.9315C27.8238 29.93 28.0471 29.8929 28.2606 29.8216L28.2567 29.8177Z" fill="white"/>
<path fill-rule="evenodd" clip-rule="evenodd" d="M84.357 33.9487C83.1928 33.9487 82.0238 33.9487 80.8548 33.9487C80.5564 33.9487 80.4782 33.87 80.4782 33.5784C80.4782 27.3055 80.4782 21.0326 80.4782 14.7597C80.4782 14.4773 80.5369 14.3801 80.8499 14.3848C82.3173 14.3848 83.7553 14.3848 85.2081 14.3848C85.4771 14.3848 85.5798 14.4449 85.6532 14.7319C86.8124 19.2769 87.9961 23.8127 89.17 28.3577C89.1918 28.4814 89.2437 28.5987 89.3216 28.7002C89.5384 28.119 89.702 27.5213 89.8108 26.9137C90.5542 24.2061 91.1999 21.4707 91.9532 18.7585C92.3298 17.4117 92.6379 16.0556 93.0097 14.718C93.0733 14.482 93.1662 14.4033 93.3912 14.4033C94.8879 14.4033 96.3945 14.4033 97.8961 14.4033C98.3363 14.4033 98.2434 14.6717 98.2434 14.9078C98.2434 20.1038 98.2434 25.2984 98.2434 30.4913C98.2434 31.5235 98.2434 32.5556 98.2434 33.5923C98.2434 33.8839 98.1651 33.9672 97.8618 33.9626C96.6977 33.9626 95.5287 33.9626 94.3597 33.9626C94.3036 33.8144 94.2885 33.6551 94.3157 33.4998C94.3157 29.7971 94.3157 26.0944 94.3157 22.4242C94.3157 22.2946 94.433 22.1048 94.208 22.0215C93.7776 23.4563 93.3374 24.8864 92.9118 26.3259C92.1814 28.7943 91.4559 31.2751 90.7352 33.7682C90.6814 33.9348 90.6178 33.9811 90.4564 33.9811C89.7276 33.9811 88.989 33.9811 88.2749 33.9811C87.8689 33.9811 87.9081 33.6247 87.8445 33.4211C87.4091 32.0326 87.0081 30.6071 86.5972 29.1954C86.2108 27.8671 85.839 26.5341 85.4526 25.2104C85.1543 24.1783 84.8363 23.1462 84.5282 22.1141C84.2738 22.2066 84.4108 22.4103 84.4108 22.5769C84.4108 26.224 84.4108 29.8712 84.4108 33.5229C84.4296 33.6669 84.4112 33.813 84.357 33.9487Z" fill="white"/>
<path fill-rule="evenodd" clip-rule="evenodd" d="M152.674 19.9295C152.674 18.7539 152.375 17.6801 151.152 17.1525C149.573 16.4953 147.729 17.2543 147.729 19.1288C147.668 19.2905 147.668 19.467 147.729 19.6287C147.685 20.4386 148.218 20.9292 148.829 21.355C149.833 21.9786 150.914 22.4838 152.048 22.8592C153.515 23.4424 154.889 24.1737 155.809 25.4928C156.312 26.2514 156.608 27.1167 156.67 28.0106C156.703 28.357 156.703 28.7055 156.67 29.0519C156.401 31.8567 154.376 33.384 151.803 33.7821C151.446 33.8376 151.084 33.8608 150.722 33.8978C150.424 33.9266 150.125 33.9266 149.827 33.8978C148.418 33.8642 147.046 33.4604 145.865 32.7315C145.264 32.3656 144.749 31.8867 144.352 31.3246C143.955 30.7625 143.684 30.1291 143.556 29.4639C143.488 29.1214 143.478 28.7789 143.434 28.4364C143.392 28.1787 143.392 27.9165 143.434 27.6588C143.907 27.5779 144.389 27.5577 144.867 27.5986C145.503 27.5986 146.139 27.5986 146.78 27.5986C147.166 27.5986 147.269 27.6727 147.269 28.0615C147.248 28.4795 147.315 28.8973 147.466 29.2907C147.617 29.684 147.849 30.0449 148.149 30.3525C148.917 31.0884 151.152 31.3846 152.131 30.2738C152.434 29.9136 152.635 29.4862 152.716 29.0319C152.796 28.5776 152.753 28.1115 152.591 27.6773C152.336 26.7748 151.573 26.3166 150.791 25.8954C149.891 25.4326 148.888 25.178 147.968 24.7522C147.008 24.3379 146.11 23.8057 145.298 23.1693C144.525 22.5299 144.007 21.6593 143.83 20.7024C143.609 19.6676 143.665 18.597 143.992 17.5876C144.34 16.5868 145.028 15.7228 145.948 15.1299C148.159 13.6026 152.018 13.6443 154.175 15.1299C154.865 15.5766 155.436 16.1693 155.842 16.861C156.248 17.5528 156.478 18.3245 156.513 19.1149C156.513 19.3602 156.567 19.5778 156.592 19.8462C156.552 19.9897 156.435 20.0036 156.308 20.0036H152.835C152.803 20.0127 152.769 20.0102 152.739 19.9965C152.709 19.9827 152.686 19.9588 152.674 19.9295Z" fill="white"/>
<path fill-rule="evenodd" clip-rule="evenodd" d="M130.017 14.3848C130.663 14.3848 131.313 14.3848 131.974 14.3848C134.957 14.3848 137.941 14.3848 140.93 14.3848C141.321 14.3848 141.419 14.4774 141.419 14.8476C141.394 15.565 141.419 16.2963 141.419 17.0183C141.419 17.3099 141.336 17.384 141.037 17.3793C138.836 17.3793 136.635 17.3793 134.444 17.3793C134.062 17.3793 133.955 17.4626 133.955 17.8422C133.955 19.2307 133.955 20.6192 133.955 22.0077C133.955 22.2946 134.038 22.3779 134.341 22.3779C136.151 22.3779 137.961 22.3779 139.77 22.3779C140.118 22.3779 140.216 22.4612 140.206 22.7945C140.176 23.498 140.176 24.2107 140.206 24.9189C140.206 25.2799 140.132 25.3817 139.717 25.3817C137.946 25.3586 136.156 25.3817 134.385 25.3817C134.048 25.3817 133.94 25.4465 133.94 25.789C133.94 27.4135 133.94 29.0288 133.94 30.6626C133.94 30.8293 133.876 31.019 134.19 31.019C136.57 31.019 138.952 31.0098 141.336 30.9912C141.365 30.9912 141.409 31.019 141.409 31.0375C141.451 32.0233 141.44 33.0104 141.375 33.995H129.973C129.915 33.8569 129.9 33.706 129.929 33.56C129.929 27.3302 129.929 21.0974 129.929 14.8615C129.934 14.681 129.831 14.4866 130.017 14.3848Z" fill="white"/>
<path fill-rule="evenodd" clip-rule="evenodd" d="M57.8266 27.6033C58.932 27.6033 60.0375 27.6264 61.138 27.6033C61.5049 27.6033 61.6271 27.7005 61.5978 28.0661C61.5293 29.3805 61.3239 30.658 60.4924 31.7688C59.5728 32.9582 58.2717 33.5136 56.8043 33.8006C56.4073 33.8594 56.0073 33.898 55.606 33.9163C55.281 33.9523 54.9527 33.9523 54.6277 33.9163C53.6763 33.8913 52.7373 33.7064 51.8543 33.3702C51.0393 33.0436 50.3106 32.5507 49.7204 31.9266C49.1302 31.3025 48.6931 30.5627 48.4402 29.7601C48.1893 29.0288 48.0413 28.2694 48 27.5014C48 25.1317 48 22.7759 48.0342 20.4109C48.0499 19.0558 48.4649 17.7318 49.2326 16.5879C49.7254 15.8791 50.3832 15.2865 51.1557 14.8557C51.9281 14.4248 52.7946 14.1672 53.6886 14.1025C55.2729 13.8914 56.8881 14.0815 58.3695 14.6532C59.1545 14.9555 59.8455 15.4416 60.3777 16.0657C60.9098 16.6899 61.2657 17.4317 61.4119 18.2217C61.5408 18.8046 61.6047 19.3987 61.6027 19.9943C61.6027 20.2628 61.5293 20.3368 61.2505 20.3322C60.2723 20.3322 59.3429 20.3322 58.3842 20.3322C57.7484 20.3322 57.6994 20.2581 57.6945 19.6194C57.7313 19.2482 57.6782 18.874 57.5392 18.5251C57.4002 18.1762 57.179 17.8619 56.8924 17.6061C56.5549 17.3454 56.1604 17.1591 55.7374 17.0606C55.3144 16.9621 54.8735 16.954 54.4467 17.0368C52.8913 17.3006 52.2359 18.0782 52.0011 19.5916C51.8994 20.6177 51.8699 21.649 51.913 22.6787C51.913 24.3542 51.913 26.0343 51.9522 27.7097C51.9509 28.4641 52.1784 29.203 52.6076 29.8388C52.8357 30.2008 53.1666 30.4951 53.5626 30.6882C53.9585 30.8813 54.4038 30.9654 54.8478 30.931C55.0163 30.9827 55.1978 30.9827 55.3663 30.931C55.9232 30.9642 56.4715 30.7886 56.8926 30.4421C57.3137 30.0956 57.5737 29.6062 57.6163 29.0797C57.6554 28.8344 57.8119 28.5891 57.7092 28.3253C57.8168 28.0985 57.6261 27.8162 57.8266 27.6033Z" fill="white"/>
<path fill-rule="evenodd" clip-rule="evenodd" d="M126.354 25.7935C124.226 25.7935 122.098 25.7518 119.97 25.8166C119.91 25.9639 119.895 26.1243 119.926 26.2795C119.926 28.6738 119.926 31.0682 119.926 33.4626C119.954 33.6179 119.938 33.7772 119.882 33.9254C118.679 33.9254 117.471 33.9254 116.268 33.9254C115.979 33.9254 115.901 33.8606 115.901 33.5783C115.901 27.29 115.901 21.0032 115.901 14.7179C115.901 14.4541 115.96 14.3615 116.258 14.3615C119.92 14.3615 123.582 14.3615 127.244 14.3615C127.537 14.3615 127.66 14.4309 127.65 14.7318C127.65 15.4816 127.65 16.236 127.65 16.9904C127.65 17.2959 127.542 17.3514 127.249 17.3514C124.994 17.3514 122.739 17.3514 120.474 17.3514C120.313 17.3514 120.137 17.3514 119.985 17.3514C119.944 17.4151 119.927 17.4902 119.936 17.5643V22.5583C119.926 22.6325 119.943 22.7078 119.985 22.7712L123.771 22.799C124.632 22.799 125.503 22.799 126.368 22.799C126.456 23.2742 126.474 23.7585 126.422 24.2384C126.466 24.7574 126.443 25.2796 126.354 25.7935Z" fill="white"/>
<path fill-rule="evenodd" clip-rule="evenodd" d="M163.293 17.4023C161.913 17.4023 160.534 17.3792 159.16 17.4023C158.851 17.4023 158.739 17.3375 158.754 17.0182C158.754 16.2637 158.754 15.514 158.754 14.7549C158.754 14.4818 158.851 14.4124 159.116 14.4124C163.286 14.4124 167.455 14.4124 171.623 14.4124C171.931 14.4124 172.009 14.5142 171.999 14.7966C171.999 15.551 171.999 16.3008 171.999 17.0552C171.999 17.3283 171.926 17.4069 171.642 17.4069C170.37 17.4069 169.094 17.4069 167.827 17.4069C167.338 17.4069 167.274 17.555 167.274 17.9716C167.274 23.1368 167.274 28.302 167.274 33.4718C167.274 33.8977 167.167 34.0087 166.731 33.9995C165.611 33.9625 164.491 33.9995 163.366 33.9995C163.31 33.8513 163.295 33.692 163.322 33.5366C163.322 28.339 163.322 23.1461 163.322 17.9485C163.374 17.7681 163.364 17.5768 163.293 17.4023Z" fill="white"/>
<path fill-rule="evenodd" clip-rule="evenodd" d="M78.1401 20.2351C78.0229 18.7041 77.3209 17.2658 76.1653 16.1884C75.0097 15.1111 73.4793 14.4684 71.8597 14.3803C69.1646 14.1674 66.7483 14.6626 65.0119 16.8565C64.162 17.9271 63.6836 19.2206 63.6423 20.5591C63.5543 22.7715 63.6423 24.6552 63.6179 26.8768C63.6179 29.1909 64.5326 31.5051 66.6749 32.8288C69.3113 34.4487 73.7526 34.259 76.1592 32.0374C76.8233 31.4075 77.348 30.6586 77.7024 29.8344C78.0569 29.0103 78.2339 28.1275 78.2233 27.2378C78.3445 24.9011 78.3184 22.5596 78.145 20.2259L78.1401 20.2351ZM73.3222 28.1588C71.5516 29.0845 69.7956 26.6731 71.307 26.0205C71.5227 25.9222 71.7706 25.9078 71.9974 25.9805C72.2242 26.0532 72.4119 26.2072 72.52 26.4093C72.6853 26.7644 72.9831 27.0495 73.3564 27.21C73.4475 27.2575 73.5228 27.3278 73.5741 27.4133C73.6254 27.4988 73.6507 27.5961 73.6472 27.6944C73.6436 27.7926 73.6114 27.8881 73.554 27.97C73.4967 28.052 73.4164 28.1174 73.3222 28.1588ZM75.4793 26.363C75.3793 26.5637 75.2189 26.732 75.0181 26.8466C74.8174 26.9613 74.5853 27.0171 74.351 27.0072C74.1168 26.9973 73.8909 26.9221 73.7017 26.791C73.5126 26.6599 73.3686 26.4788 73.288 26.2705C72.7157 25.0486 71.5075 24.9884 70.2896 25.6179C67.4771 27.0758 64.6597 24.3219 66.1271 21.6421C68.6266 17.0833 76.0124 18.4255 76.2423 24.0674C76.2193 24.885 75.955 25.6802 75.4793 26.363Z" fill="white"/>
<path fill-rule="evenodd" clip-rule="evenodd" d="M113.944 20.1332C113.91 19.8601 113.876 19.5778 113.832 19.3047C113.637 18.0749 113.026 16.938 112.091 16.0649C111.496 15.5226 110.793 15.0974 110.023 14.8138C109.253 14.5302 108.431 14.3938 107.605 14.4125C105.37 14.3848 103.13 14.4125 100.894 14.4125C100.577 14.4125 100.518 14.5144 100.518 14.7874C100.518 21.0573 100.518 27.3287 100.518 33.6016C100.518 33.8932 100.601 33.9765 100.904 33.9718C102.083 33.9718 103.272 33.9718 104.446 33.9718C104.505 33.8245 104.522 33.6646 104.494 33.509V27.4135C104.494 26.909 104.494 26.9137 104.984 26.9044C105.933 26.9044 106.881 26.9044 107.83 26.9044C108.744 26.8728 109.642 26.6682 110.472 26.3027C112.682 25.2752 113.724 23.5026 113.93 21.2116C113.97 20.8609 113.97 20.507 113.93 20.1563L113.944 20.1332ZM109.718 22.2714C109.568 22.7603 109.247 23.1862 108.807 23.4789C108.366 23.7717 107.834 23.9139 107.297 23.8821C106.505 23.8821 105.708 23.859 104.91 23.8821C104.529 23.8821 104.45 23.7618 104.46 23.4193C104.485 22.4936 104.46 21.5263 104.46 20.5867C104.46 19.6472 104.46 18.666 104.46 17.7079C104.46 17.4395 104.524 17.3469 104.817 17.3562C105.522 17.3562 106.226 17.3562 106.93 17.3562C108.696 17.3562 109.552 18.0134 109.904 19.6703C110.114 20.5374 110.049 21.4435 109.718 22.2761V22.2714Z" fill="white"/>
</svg>
