<svg width="804" height="418" viewBox="0 0 804 418" fill="none" xmlns="http://www.w3.org/2000/svg">
<rect width="804" height="417.108" rx="24" fill="#2D2F45"/>
<path d="M406.309 275.19C460.767 275.19 505.027 230.93 505.027 176.472C505.027 122.013 460.767 77.7529 406.309 77.7529C351.647 77.7529 307.59 121.809 307.59 176.472C307.59 230.93 351.647 275.19 406.309 275.19Z" fill="#373951"/>
<path d="M344.193 149.486H463.524C467.993 149.486 472.016 153.285 472.016 157.978V233.286C472.016 237.755 468.217 241.778 463.524 241.778H344.193C339.723 241.778 335.701 237.979 335.701 233.286V157.978C335.701 153.285 339.723 149.486 344.193 149.486Z" fill="#474E61"/>
<path d="M521.141 151.792C524.2 148.936 524.404 144.245 521.549 141.186C518.693 138.126 514.002 137.922 510.942 140.778C507.883 143.633 507.679 148.325 510.534 151.384C513.186 154.24 518.081 154.647 521.141 151.792Z" fill="#2A2E37"/>
<path d="M521.549 118.138C522.772 116.914 522.976 114.874 521.753 113.651C520.529 112.427 518.489 112.223 517.265 113.447C516.042 114.67 515.838 116.71 517.061 117.934C518.285 119.362 520.325 119.362 521.549 118.138Z" fill="#2A2E37"/>
<path d="M441.391 71.838C442.207 71.0221 442.411 69.5944 441.595 68.7785C440.779 67.9627 439.351 67.7587 438.536 68.5745C437.72 69.3904 437.516 70.8182 438.332 71.634C439.147 72.4499 440.575 72.6538 441.391 71.838Z" fill="#2A2E37"/>
<g filter="url(#filter0_d_840_1629)">
<path d="M515.368 109.709L485.647 162.671C484.53 164.458 482.295 165.129 480.731 164.011L429.781 134.29C427.993 133.173 427.322 130.938 428.44 129.374L467.546 61.8871C468.664 60.0993 470.898 59.4289 472.463 60.5463L509.335 81.999L515.368 109.709Z" fill="#5C6479"/>
</g>
<path d="M509.334 81.999L500.843 96.3009C499.725 98.5356 500.396 100.77 502.407 102.111L515.145 109.485" fill="#474E61"/>
<path d="M474.25 95.8538C475.144 95.6304 476.038 95.6304 476.708 95.6304C477.602 95.6304 478.496 95.6304 479.39 95.6304C480.284 95.8538 481.401 96.0773 482.295 96.3008C483.412 96.7477 484.306 97.1946 485.2 97.6416C486.541 98.312 487.658 99.2058 488.552 100.323C489.446 101.217 490.116 102.334 490.563 103.675C491.01 104.793 491.01 106.133 491.01 107.251C490.787 108.591 490.34 109.932 489.67 111.05C488.999 112.167 488.329 113.061 487.435 113.955C486.541 114.625 485.871 115.072 484.753 115.519C483.859 115.966 482.966 116.189 482.072 116.189L479.614 116.413C478.943 116.413 478.273 116.636 477.379 116.86C476.708 117.083 476.262 117.307 475.815 117.754L473.356 120.882L469.334 118.647L471.122 114.625C471.345 113.955 472.016 113.284 472.463 112.837C473.133 112.39 473.803 112.167 474.474 111.943C475.368 111.72 476.038 111.72 476.932 111.497C477.826 111.497 478.72 111.273 479.614 111.05C480.507 110.826 481.178 110.603 482.072 110.156C482.966 109.709 483.412 109.038 483.859 108.145C484.083 107.698 484.306 107.027 484.53 106.357C484.53 105.686 484.53 105.239 484.306 104.793C484.083 104.122 483.859 103.675 483.412 103.228C482.966 102.781 482.519 102.334 481.848 101.887C481.178 101.441 480.284 100.994 479.39 100.77C478.72 100.547 478.049 100.547 477.379 100.547C476.708 100.547 476.262 100.547 475.815 100.547C475.591 100.547 475.144 100.547 474.921 100.323C474.474 100.1 474.027 99.4293 474.027 98.9824L474.25 95.8538ZM462.854 125.351C463.077 124.904 463.524 124.458 463.971 124.011C464.418 123.787 464.865 123.34 465.312 123.34C466.429 123.117 467.546 123.117 468.44 123.787C468.887 124.011 469.334 124.458 469.781 124.904C470.004 125.351 470.228 125.798 470.451 126.245C471.122 128.48 469.781 130.491 467.546 131.162C466.429 131.385 465.312 131.162 464.418 130.715C463.971 130.491 463.524 130.044 463.077 129.597C462.854 129.15 462.407 128.703 462.407 128.256C462.183 127.81 462.183 127.139 462.407 126.692C462.407 126.245 462.63 125.798 462.854 125.351Z" fill="#A9AFC3"/>
<g filter="url(#filter1_d_840_1629)">
<path d="M324.304 86.6921L358.271 122.223C359.388 123.564 359.388 125.352 358.048 126.469L323.41 159.319C322.07 160.436 320.282 160.436 319.165 159.095L275.812 113.285C274.695 111.944 274.695 110.156 276.035 109.039L301.287 85.3513L324.304 86.6921Z" fill="#5C6479"/>
</g>
<path d="M301.063 84.9041L310.449 94.7366C311.79 96.0774 314.025 96.0774 315.365 94.7366L324.081 86.4683" fill="#474E61"/>
<path d="M303.745 115.519C303.745 114.849 303.969 114.178 304.192 113.508C304.416 112.838 304.639 112.167 304.863 111.497C305.086 110.826 305.533 110.156 305.98 109.486C306.427 108.815 307.097 108.145 307.768 107.474C308.662 106.58 309.555 105.91 310.673 105.463C311.567 105.016 312.684 104.793 313.578 104.793C314.472 104.793 315.589 105.016 316.483 105.24C317.377 105.687 318.271 106.357 319.165 107.027C319.835 107.698 320.505 108.592 320.729 109.486C320.952 110.156 321.176 111.05 321.399 111.944C321.399 112.614 321.399 113.508 321.399 114.178C321.176 114.849 321.176 115.519 320.952 116.19C320.952 116.86 320.729 117.307 320.729 117.977C320.729 118.424 320.729 118.871 321.176 119.318L322.963 122L320.282 124.458L317.6 122C317.153 121.553 316.706 121.106 316.483 120.435C316.259 119.765 316.259 119.318 316.259 118.648C316.259 117.977 316.483 117.307 316.483 116.636C316.706 115.966 316.706 115.296 316.706 114.625C316.706 113.955 316.706 113.284 316.483 112.614C316.259 111.944 315.813 111.273 315.366 110.603C315.142 110.156 314.695 109.932 314.248 109.709C313.801 109.486 313.354 109.486 312.907 109.486C312.461 109.486 312.014 109.709 311.567 109.932C311.12 110.156 310.673 110.379 310.226 110.826C309.779 111.273 309.332 111.944 308.885 112.391C308.662 112.838 308.438 113.284 308.215 113.955C307.991 114.402 307.991 114.849 307.991 115.072C307.991 115.296 307.768 115.519 307.544 115.743C307.321 116.19 306.65 116.19 306.203 115.966L303.745 115.519ZM324.304 131.162C324.081 130.938 323.857 130.491 323.634 130.044C323.41 129.598 323.41 129.151 323.41 128.704C323.41 127.81 323.857 126.916 324.528 126.246C324.751 126.022 325.198 125.799 325.645 125.575C326.092 125.352 326.539 125.352 326.986 125.352C328.327 125.352 329.667 126.246 330.114 127.586C330.338 128.033 330.338 128.48 330.338 128.927C330.338 129.374 330.114 129.821 330.114 130.268C329.891 130.715 329.667 130.938 329.221 131.385C328.997 131.609 328.55 132.056 328.103 132.056C327.209 132.279 326.315 132.279 325.645 132.056C324.975 131.832 324.528 131.609 324.304 131.162Z" fill="#A9AFC3"/>
<g filter="url(#filter2_d_840_1629)">
<path d="M413.02 142.559L399.836 189.71C399.389 191.274 397.601 192.392 396.037 191.721L350.226 178.313C348.662 177.866 347.545 176.079 348.215 174.514L366.092 113.731C366.539 112.167 368.327 111.05 369.891 111.72L403.188 121.553L413.02 142.559Z" fill="#5C6479"/>
</g>
<path d="M403.192 121.635L398.942 134.961C398.495 136.749 399.612 138.76 401.4 139.207L413.186 142.537" fill="#474E61"/>
<path d="M377.936 139.654C378.607 139.43 379.277 139.207 379.948 138.983C380.618 138.76 381.288 138.536 382.182 138.536C383.076 138.536 383.746 138.536 384.64 138.536C385.534 138.536 386.428 138.76 387.322 138.983C388.439 139.207 389.557 139.877 390.45 140.548C391.344 141.218 392.015 141.888 392.685 142.782C393.132 143.676 393.579 144.57 393.802 145.464C394.026 146.581 393.802 147.699 393.579 148.592C393.356 149.486 392.909 150.38 392.238 151.274C391.791 151.944 391.121 152.615 390.45 153.062C389.78 153.509 389.11 153.956 388.439 154.179L386.428 154.849C385.981 155.073 385.311 155.296 384.864 155.52C384.417 155.743 383.97 156.19 383.97 156.637L382.629 159.542L379.054 157.978L379.724 154.403C379.724 153.732 380.171 153.285 380.618 152.838C381.065 152.391 381.512 151.944 382.182 151.721C382.853 151.497 383.523 151.274 383.97 151.051C384.64 150.827 385.311 150.604 385.981 150.157C386.652 149.933 387.098 149.486 387.769 149.039C388.216 148.592 388.663 147.922 388.886 147.028C388.886 146.805 388.886 146.358 388.886 145.911C388.886 145.464 388.663 145.017 388.439 144.57C388.216 144.123 387.769 143.9 387.322 143.453C386.875 143.229 386.428 143.006 385.758 142.782C385.087 142.559 384.417 142.559 383.523 142.559C383.076 142.559 382.406 142.559 381.959 142.782C381.512 142.782 381.065 143.006 380.841 143.006C380.618 143.006 380.394 143.229 379.948 143.006C379.501 143.006 379.054 142.559 379.054 142.112L377.936 139.654ZM374.584 165.352C374.808 164.905 374.808 164.459 375.255 164.235C375.478 163.788 375.925 163.565 376.149 163.341C377.042 162.894 377.936 162.894 378.607 163.118C379.054 163.341 379.501 163.565 379.724 163.788C379.948 164.012 380.394 164.459 380.618 164.682C381.512 166.246 380.841 168.257 379.277 168.928C378.383 169.375 377.489 169.375 376.819 169.151C376.372 168.928 375.925 168.928 375.702 168.481C375.255 168.257 375.031 167.811 374.808 167.587C374.584 167.14 374.584 166.917 374.361 166.47C374.584 166.246 374.584 165.799 374.584 165.352Z" fill="#A9AFC3"/>
<g filter="url(#filter3_d_840_1629)">
<path d="M520.732 223.23L477.379 246.694C476.038 247.364 474.027 246.917 473.357 245.353L451.68 203.118C451.01 201.777 451.457 199.766 453.021 199.095L509.335 169.374C510.676 168.704 512.687 169.151 513.357 170.715L529 201.33L520.732 223.23Z" fill="#5C6479"/>
</g>
<path d="M528.776 201.777L516.709 208.034C515.145 208.928 514.474 211.163 515.145 212.727L520.508 223.454" fill="#474E61"/>
<path d="M498.831 195.967C499.502 196.191 499.949 196.637 500.619 196.861C501.29 197.084 501.737 197.531 502.407 198.202C503.077 198.872 503.524 199.319 503.971 199.989C504.642 200.66 505.089 201.33 505.535 202.224C506.206 203.118 506.429 204.459 506.429 205.353C506.653 206.47 506.429 207.364 506.429 208.481C506.206 209.375 505.759 210.269 505.312 211.163C504.642 212.057 503.748 212.727 502.854 213.174C502.183 213.621 501.066 213.844 500.172 214.068C499.502 214.291 498.385 214.291 497.714 214.068C497.044 213.844 496.15 213.844 495.479 213.397L493.692 212.504C493.245 212.28 492.574 212.057 492.127 211.833C491.681 211.61 491.01 211.61 490.787 212.057L487.882 213.174L486.317 209.822L489.222 207.811C489.669 207.364 490.34 207.364 491.01 207.364C491.681 207.364 492.127 207.364 492.798 207.587C493.468 207.811 493.915 208.258 494.362 208.481C495.033 208.705 495.479 209.152 496.373 209.375C497.044 209.599 497.491 209.598 498.385 209.822C499.055 209.822 499.725 209.599 500.619 209.152C501.29 208.705 502.183 208.034 502.183 206.917C502.407 206.47 502.183 206.023 502.183 205.353C501.96 204.906 501.96 204.459 501.513 203.788C501.29 203.118 500.843 202.671 500.396 202.001C500.172 201.777 499.725 201.33 499.278 201.107C499.055 200.883 498.608 200.66 498.385 200.436C498.161 200.213 497.938 200.213 497.714 199.766C497.491 199.543 497.491 198.872 497.714 198.649L498.831 195.967ZM478.049 211.386C478.496 211.163 478.719 210.939 479.39 211.163C479.837 210.939 480.284 211.163 480.507 211.163C481.401 211.386 482.071 212.057 482.295 212.727C482.518 213.174 482.518 213.621 482.518 214.068C482.518 214.291 482.518 214.962 482.518 215.185C482.295 215.856 481.625 216.749 480.954 216.973C480.507 217.196 480.06 217.196 479.613 217.196C479.39 217.196 478.719 217.196 478.496 217.196C477.602 216.973 476.932 216.303 476.708 215.632C476.485 215.185 476.485 214.738 476.485 214.291C476.261 213.844 476.485 213.397 476.485 213.174C476.708 212.727 476.932 212.504 476.932 212.057C477.155 211.833 477.826 211.833 478.049 211.386Z" fill="#A9AFC3"/>
<path d="M474.25 197.978V235.074C474.25 239.766 470.228 243.789 465.535 243.789H342.852C338.159 243.789 334.137 239.766 334.137 235.074V194.85" stroke="#1676EE" stroke-width="3" stroke-linecap="round" stroke-linejoin="round"/>
<path d="M469.558 174.067H427.546C423.523 174.067 419.501 175.408 416.372 178.09L405.199 187.028C402.071 189.486 398.048 191.051 394.026 191.051H346.204C341.511 191.051 337.489 194.85 337.489 199.766C337.489 200.213 337.489 200.66 337.712 201.107L346.427 246.917C347.098 251.163 350.897 254.515 355.143 254.515H457.267C461.736 254.515 465.312 251.387 465.982 247.141L478.273 184.123C478.943 179.43 475.815 174.961 470.898 174.291C470.451 174.067 470.004 174.067 469.558 174.067Z" fill="white"/>
<g filter="url(#filter4_d_840_1629)">
<path d="M481.178 165.799H431.122C426.429 165.799 421.513 167.587 417.937 170.492L404.529 181.442C400.73 184.571 396.037 186.135 391.345 186.135H333.914C328.327 186.135 323.411 190.604 323.411 196.638C323.411 197.085 323.411 197.755 323.634 198.202L334.137 253.845C335.031 258.985 339.277 263.007 344.64 263.007H466.429C471.569 263.007 476.038 259.208 476.932 254.069L491.458 177.867C492.351 172.28 488.553 166.693 482.742 165.799C482.295 165.799 481.625 165.799 481.178 165.799Z" fill="url(#paint0_linear_840_1629)"/>
</g>
<path d="M384.64 224.347C387.545 224.347 390.003 221.889 390.003 218.984C390.003 216.079 387.545 213.621 384.64 213.621C381.735 213.621 379.277 216.079 379.277 218.984C379.277 221.889 381.735 224.347 384.64 224.347Z" fill="#A9AFC4"/>
<path d="M426.429 223.454C429.334 223.454 431.792 220.996 431.792 218.09C431.792 215.185 429.334 212.727 426.429 212.727C423.524 212.727 421.065 215.185 421.065 218.09C421.065 220.996 423.524 223.454 426.429 223.454Z" fill="#A9AFC4"/>
<path d="M416.819 232.392H413.914C411.456 227.476 405.423 225.464 400.73 228.146C398.719 229.04 397.154 230.828 396.484 232.392H393.579C396.037 225.911 403.411 222.559 409.668 225.017C413.02 226.358 415.479 229.04 416.819 232.392Z" fill="#A9AFC4"/>
<path d="M501.513 281.108C499.055 281.108 499.949 281.331 480.954 262.336C462.63 275.968 437.155 262.783 437.155 240.437C437.155 225.465 449.445 213.174 464.418 213.174C486.094 213.174 499.502 237.532 486.764 256.079L504.418 273.733C507.323 276.415 505.536 281.108 501.513 281.108ZM464.641 221.889C454.362 221.889 445.87 230.157 445.87 240.66C445.87 251.163 454.138 259.431 464.641 259.431C465.759 259.431 466.876 259.431 467.993 259.208C469.111 258.984 470.228 258.761 471.122 258.314C472.239 257.867 473.133 257.42 474.027 256.973C475.144 256.303 476.038 255.632 476.932 254.739C477.602 254.068 478.496 253.174 479.167 252.504C479.837 251.61 480.507 250.716 480.954 249.822C481.401 248.928 481.848 247.811 482.295 246.694C482.742 245.576 482.965 244.459 482.965 243.342C482.965 242.448 483.189 241.778 483.189 240.884C483.412 230.157 474.921 221.889 464.641 221.889Z" fill="#A9AFC4"/>
<path d="M371.456 209.822L383.523 203.342" stroke="#989FB0" stroke-width="1.5" stroke-miterlimit="10"/>
<path d="M436.931 206.693L424.864 199.989" stroke="#989FB0" stroke-width="1.5" stroke-miterlimit="10"/>
<path d="M191.326 335.673C191.257 334.986 190.965 334.452 190.448 334.071C189.931 333.69 189.229 333.5 188.343 333.5C187.74 333.5 187.232 333.585 186.817 333.756C186.402 333.92 186.084 334.151 185.863 334.446C185.647 334.741 185.539 335.077 185.539 335.452C185.527 335.764 185.593 336.037 185.735 336.27C185.882 336.503 186.084 336.705 186.34 336.875C186.596 337.04 186.891 337.185 187.226 337.31C187.561 337.429 187.919 337.531 188.3 337.616L189.868 337.991C190.63 338.162 191.328 338.389 191.965 338.673C192.601 338.957 193.152 339.307 193.618 339.722C194.084 340.136 194.445 340.625 194.701 341.187C194.962 341.75 195.096 342.395 195.101 343.122C195.096 344.19 194.823 345.116 194.283 345.901C193.749 346.679 192.976 347.284 191.965 347.716C190.959 348.142 189.746 348.355 188.326 348.355C186.917 348.355 185.689 348.139 184.644 347.707C183.604 347.276 182.792 346.636 182.206 345.79C181.627 344.937 181.323 343.883 181.294 342.628H184.865C184.905 343.213 185.073 343.702 185.368 344.094C185.669 344.48 186.07 344.773 186.57 344.972C187.076 345.165 187.647 345.261 188.283 345.261C188.908 345.261 189.451 345.17 189.911 344.989C190.377 344.807 190.738 344.554 190.993 344.23C191.249 343.906 191.377 343.534 191.377 343.114C191.377 342.722 191.26 342.392 191.027 342.125C190.8 341.858 190.465 341.631 190.022 341.443C189.584 341.256 189.047 341.085 188.411 340.932L186.51 340.455C185.039 340.097 183.877 339.537 183.025 338.776C182.172 338.014 181.749 336.989 181.755 335.699C181.749 334.642 182.03 333.719 182.598 332.929C183.172 332.139 183.959 331.523 184.959 331.08C185.959 330.636 187.096 330.415 188.368 330.415C189.664 330.415 190.794 330.636 191.76 331.08C192.732 331.523 193.488 332.139 194.027 332.929C194.567 333.719 194.846 334.633 194.863 335.673H191.326ZM202.339 348.321C201.345 348.321 200.444 348.065 199.637 347.554C198.836 347.037 198.2 346.278 197.728 345.278C197.262 344.273 197.029 343.04 197.029 341.58C197.029 340.08 197.271 338.832 197.754 337.838C198.237 336.838 198.879 336.091 199.68 335.597C200.487 335.097 201.37 334.847 202.331 334.847C203.064 334.847 203.674 334.972 204.163 335.222C204.657 335.466 205.055 335.773 205.356 336.142C205.663 336.506 205.896 336.864 206.055 337.216H206.166V335.017H209.788V348.108H206.208V346.011H206.055C205.885 346.375 205.643 346.736 205.331 347.094C205.024 347.446 204.623 347.739 204.129 347.972C203.64 348.205 203.044 348.321 202.339 348.321ZM203.49 345.432C204.075 345.432 204.569 345.273 204.973 344.955C205.382 344.631 205.694 344.179 205.91 343.599C206.132 343.02 206.243 342.341 206.243 341.562C206.243 340.784 206.135 340.108 205.919 339.534C205.703 338.96 205.39 338.517 204.981 338.205C204.572 337.892 204.075 337.736 203.49 337.736C202.893 337.736 202.39 337.898 201.981 338.222C201.572 338.545 201.262 338.994 201.052 339.568C200.842 340.142 200.737 340.807 200.737 341.562C200.737 342.324 200.842 342.997 201.052 343.582C201.268 344.162 201.578 344.616 201.981 344.946C202.39 345.27 202.893 345.432 203.49 345.432ZM224.978 335.017L220.401 348.108H216.31L211.733 335.017H215.569L218.287 344.383H218.424L221.134 335.017H224.978ZM232.38 348.364C231.033 348.364 229.874 348.091 228.902 347.545C227.936 346.994 227.192 346.216 226.669 345.21C226.147 344.199 225.885 343.003 225.885 341.622C225.885 340.276 226.147 339.094 226.669 338.077C227.192 337.06 227.928 336.267 228.877 335.699C229.831 335.131 230.951 334.847 232.235 334.847C233.098 334.847 233.902 334.986 234.647 335.264C235.397 335.537 236.05 335.949 236.607 336.5C237.169 337.051 237.607 337.744 237.919 338.58C238.232 339.409 238.388 340.381 238.388 341.494V342.491H227.334V340.241H234.971C234.971 339.719 234.857 339.256 234.63 338.852C234.402 338.449 234.087 338.133 233.684 337.906C233.286 337.673 232.823 337.557 232.294 337.557C231.743 337.557 231.255 337.685 230.828 337.94C230.408 338.19 230.078 338.528 229.84 338.955C229.601 339.375 229.479 339.844 229.473 340.361V342.5C229.473 343.148 229.593 343.707 229.831 344.179C230.076 344.651 230.419 345.014 230.863 345.27C231.306 345.526 231.831 345.653 232.439 345.653C232.843 345.653 233.212 345.597 233.547 345.483C233.882 345.369 234.169 345.199 234.408 344.972C234.647 344.744 234.828 344.466 234.953 344.136L238.311 344.358C238.141 345.165 237.792 345.869 237.263 346.472C236.74 347.068 236.064 347.534 235.235 347.869C234.411 348.199 233.459 348.364 232.38 348.364ZM257.204 338.75L253.88 338.955C253.824 338.67 253.701 338.415 253.514 338.187C253.326 337.955 253.079 337.77 252.772 337.633C252.471 337.491 252.11 337.42 251.69 337.42C251.127 337.42 250.653 337.54 250.267 337.778C249.88 338.011 249.687 338.324 249.687 338.716C249.687 339.028 249.812 339.293 250.062 339.508C250.312 339.724 250.741 339.898 251.349 340.028L253.718 340.506C254.991 340.767 255.94 341.187 256.565 341.767C257.19 342.347 257.502 343.108 257.502 344.051C257.502 344.909 257.25 345.662 256.744 346.31C256.244 346.957 255.556 347.463 254.681 347.827C253.812 348.185 252.809 348.364 251.673 348.364C249.94 348.364 248.559 348.003 247.531 347.281C246.508 346.554 245.909 345.565 245.733 344.315L249.304 344.128C249.412 344.656 249.673 345.06 250.088 345.338C250.502 345.611 251.034 345.747 251.681 345.747C252.318 345.747 252.829 345.625 253.216 345.381C253.608 345.131 253.806 344.81 253.812 344.418C253.806 344.088 253.667 343.818 253.395 343.608C253.122 343.392 252.701 343.227 252.133 343.114L249.866 342.662C248.588 342.406 247.636 341.963 247.011 341.332C246.392 340.702 246.082 339.898 246.082 338.92C246.082 338.08 246.309 337.355 246.764 336.747C247.224 336.139 247.869 335.67 248.699 335.341C249.534 335.011 250.511 334.847 251.63 334.847C253.284 334.847 254.585 335.196 255.534 335.895C256.488 336.594 257.045 337.545 257.204 338.75ZM265.703 348.364C264.38 348.364 263.235 348.082 262.269 347.52C261.309 346.952 260.567 346.162 260.044 345.151C259.522 344.133 259.26 342.955 259.26 341.614C259.26 340.261 259.522 339.08 260.044 338.068C260.567 337.051 261.309 336.261 262.269 335.699C263.235 335.131 264.38 334.847 265.703 334.847C267.027 334.847 268.169 335.131 269.13 335.699C270.096 336.261 270.84 337.051 271.363 338.068C271.885 339.08 272.147 340.261 272.147 341.614C272.147 342.955 271.885 344.133 271.363 345.151C270.84 346.162 270.096 346.952 269.13 347.52C268.169 348.082 267.027 348.364 265.703 348.364ZM265.721 345.551C266.323 345.551 266.826 345.381 267.229 345.04C267.632 344.693 267.936 344.222 268.141 343.625C268.351 343.028 268.456 342.349 268.456 341.588C268.456 340.827 268.351 340.148 268.141 339.551C267.936 338.955 267.632 338.483 267.229 338.136C266.826 337.79 266.323 337.616 265.721 337.616C265.113 337.616 264.601 337.79 264.186 338.136C263.777 338.483 263.468 338.955 263.257 339.551C263.053 340.148 262.951 340.827 262.951 341.588C262.951 342.349 263.053 343.028 263.257 343.625C263.468 344.222 263.777 344.693 264.186 345.04C264.601 345.381 265.113 345.551 265.721 345.551ZM274.507 348.108V335.017H277.968V337.327H278.121C278.394 336.56 278.848 335.955 279.485 335.511C280.121 335.068 280.882 334.847 281.769 334.847C282.667 334.847 283.431 335.071 284.061 335.52C284.692 335.963 285.113 336.565 285.323 337.327H285.459C285.726 336.577 286.209 335.977 286.908 335.528C287.613 335.074 288.445 334.847 289.405 334.847C290.627 334.847 291.618 335.236 292.38 336.014C293.147 336.787 293.53 337.883 293.53 339.304V348.108H289.908V340.02C289.908 339.293 289.715 338.747 289.328 338.383C288.942 338.02 288.459 337.838 287.88 337.838C287.221 337.838 286.706 338.048 286.337 338.469C285.968 338.883 285.783 339.432 285.783 340.114V348.108H282.263V339.943C282.263 339.301 282.078 338.79 281.709 338.409C281.346 338.028 280.865 337.838 280.269 337.838C279.865 337.838 279.502 337.94 279.178 338.145C278.86 338.344 278.607 338.625 278.419 338.989C278.232 339.347 278.138 339.767 278.138 340.25V348.108H274.507ZM302.364 348.364C301.017 348.364 299.858 348.091 298.887 347.545C297.921 346.994 297.176 346.216 296.654 345.21C296.131 344.199 295.87 343.003 295.87 341.622C295.87 340.276 296.131 339.094 296.654 338.077C297.176 337.06 297.912 336.267 298.861 335.699C299.816 335.131 300.935 334.847 302.219 334.847C303.083 334.847 303.887 334.986 304.631 335.264C305.381 335.537 306.034 335.949 306.591 336.5C307.154 337.051 307.591 337.744 307.904 338.58C308.216 339.409 308.373 340.381 308.373 341.494V342.491H297.319V340.241H304.955C304.955 339.719 304.841 339.256 304.614 338.852C304.387 338.449 304.071 338.133 303.668 337.906C303.27 337.673 302.807 337.557 302.279 337.557C301.728 337.557 301.239 337.685 300.813 337.94C300.392 338.19 300.063 338.528 299.824 338.955C299.586 339.375 299.463 339.844 299.458 340.361V342.5C299.458 343.148 299.577 343.707 299.816 344.179C300.06 344.651 300.404 345.014 300.847 345.27C301.29 345.526 301.816 345.653 302.424 345.653C302.827 345.653 303.196 345.597 303.532 345.483C303.867 345.369 304.154 345.199 304.392 344.972C304.631 344.744 304.813 344.466 304.938 344.136L308.296 344.358C308.125 345.165 307.776 345.869 307.248 346.472C306.725 347.068 306.049 347.534 305.219 347.869C304.395 348.199 303.444 348.364 302.364 348.364ZM316.297 348.108V335.017H319.757V337.327H319.91C320.183 336.56 320.637 335.955 321.274 335.511C321.91 335.068 322.672 334.847 323.558 334.847C324.456 334.847 325.22 335.071 325.85 335.52C326.481 335.963 326.902 336.565 327.112 337.327H327.248C327.515 336.577 327.998 335.977 328.697 335.528C329.402 335.074 330.234 334.847 331.194 334.847C332.416 334.847 333.407 335.236 334.169 336.014C334.936 336.787 335.319 337.883 335.319 339.304V348.108H331.697V340.02C331.697 339.293 331.504 338.747 331.118 338.383C330.731 338.02 330.248 337.838 329.669 337.838C329.01 337.838 328.495 338.048 328.126 338.469C327.757 338.883 327.572 339.432 327.572 340.114V348.108H324.052V339.943C324.052 339.301 323.868 338.79 323.498 338.409C323.135 338.028 322.654 337.838 322.058 337.838C321.654 337.838 321.291 337.94 320.967 338.145C320.649 338.344 320.396 338.625 320.208 338.989C320.021 339.347 319.927 339.767 319.927 340.25V348.108H316.297ZM344.153 348.364C342.806 348.364 341.647 348.091 340.676 347.545C339.71 346.994 338.966 346.216 338.443 345.21C337.92 344.199 337.659 343.003 337.659 341.622C337.659 340.276 337.92 339.094 338.443 338.077C338.966 337.06 339.701 336.267 340.65 335.699C341.605 335.131 342.724 334.847 344.008 334.847C344.872 334.847 345.676 334.986 346.42 335.264C347.17 335.537 347.824 335.949 348.38 336.5C348.943 337.051 349.38 337.744 349.693 338.58C350.005 339.409 350.162 340.381 350.162 341.494V342.491H339.108V340.241H346.744C346.744 339.719 346.63 339.256 346.403 338.852C346.176 338.449 345.86 338.133 345.457 337.906C345.059 337.673 344.596 337.557 344.068 337.557C343.517 337.557 343.028 337.685 342.602 337.94C342.181 338.19 341.852 338.528 341.613 338.955C341.375 339.375 341.252 339.844 341.247 340.361V342.5C341.247 343.148 341.366 343.707 341.605 344.179C341.849 344.651 342.193 345.014 342.636 345.27C343.079 345.526 343.605 345.653 344.213 345.653C344.616 345.653 344.985 345.597 345.321 345.483C345.656 345.369 345.943 345.199 346.181 344.972C346.42 344.744 346.602 344.466 346.727 344.136L350.085 344.358C349.914 345.165 349.565 345.869 349.037 346.472C348.514 347.068 347.838 347.534 347.008 347.869C346.184 348.199 345.233 348.364 344.153 348.364ZM352.531 348.108V335.017H355.991V337.327H356.145C356.417 336.56 356.872 335.955 357.508 335.511C358.145 335.068 358.906 334.847 359.792 334.847C360.69 334.847 361.454 335.071 362.085 335.52C362.716 335.963 363.136 336.565 363.346 337.327H363.483C363.75 336.577 364.233 335.977 364.931 335.528C365.636 335.074 366.468 334.847 367.429 334.847C368.65 334.847 369.642 335.236 370.403 336.014C371.17 336.787 371.554 337.883 371.554 339.304V348.108H367.931V340.02C367.931 339.293 367.738 338.747 367.352 338.383C366.966 338.02 366.483 337.838 365.903 337.838C365.244 337.838 364.73 338.048 364.36 338.469C363.991 338.883 363.806 339.432 363.806 340.114V348.108H360.287V339.943C360.287 339.301 360.102 338.79 359.733 338.409C359.369 338.028 358.889 337.838 358.292 337.838C357.889 337.838 357.525 337.94 357.201 338.145C356.883 338.344 356.63 338.625 356.443 338.989C356.255 339.347 356.162 339.767 356.162 340.25V348.108H352.531ZM380.387 348.364C379.041 348.364 377.882 348.091 376.91 347.545C375.944 346.994 375.2 346.216 374.677 345.21C374.154 344.199 373.893 343.003 373.893 341.622C373.893 340.276 374.154 339.094 374.677 338.077C375.2 337.06 375.936 336.267 376.885 335.699C377.839 335.131 378.958 334.847 380.243 334.847C381.106 334.847 381.91 334.986 382.654 335.264C383.404 335.537 384.058 335.949 384.615 336.5C385.177 337.051 385.615 337.744 385.927 338.58C386.24 339.409 386.396 340.381 386.396 341.494V342.491H375.342V340.241H382.978C382.978 339.719 382.865 339.256 382.637 338.852C382.41 338.449 382.095 338.133 381.691 337.906C381.294 337.673 380.831 337.557 380.302 337.557C379.751 337.557 379.262 337.685 378.836 337.94C378.416 338.19 378.086 338.528 377.848 338.955C377.609 339.375 377.487 339.844 377.481 340.361V342.5C377.481 343.148 377.6 343.707 377.839 344.179C378.083 344.651 378.427 345.014 378.87 345.27C379.314 345.526 379.839 345.653 380.447 345.653C380.85 345.653 381.22 345.597 381.555 345.483C381.89 345.369 382.177 345.199 382.416 344.972C382.654 344.744 382.836 344.466 382.961 344.136L386.319 344.358C386.149 345.165 385.799 345.869 385.271 346.472C384.748 347.068 384.072 347.534 383.243 347.869C382.419 348.199 381.467 348.364 380.387 348.364ZM399.657 338.75L396.333 338.955C396.277 338.67 396.154 338.415 395.967 338.187C395.779 337.955 395.532 337.77 395.225 337.633C394.924 337.491 394.564 337.42 394.143 337.42C393.581 337.42 393.106 337.54 392.72 337.778C392.333 338.011 392.14 338.324 392.14 338.716C392.14 339.028 392.265 339.293 392.515 339.508C392.765 339.724 393.194 339.898 393.802 340.028L396.172 340.506C397.444 340.767 398.393 341.187 399.018 341.767C399.643 342.347 399.956 343.108 399.956 344.051C399.956 344.909 399.703 345.662 399.197 346.31C398.697 346.957 398.01 347.463 397.135 347.827C396.265 348.185 395.262 348.364 394.126 348.364C392.393 348.364 391.012 348.003 389.984 347.281C388.961 346.554 388.362 345.565 388.186 344.315L391.757 344.128C391.865 344.656 392.126 345.06 392.541 345.338C392.956 345.611 393.487 345.747 394.135 345.747C394.771 345.747 395.282 345.625 395.669 345.381C396.061 345.131 396.26 344.81 396.265 344.418C396.26 344.088 396.12 343.818 395.848 343.608C395.575 343.392 395.154 343.227 394.586 343.114L392.319 342.662C391.041 342.406 390.089 341.963 389.464 341.332C388.845 340.702 388.535 339.898 388.535 338.92C388.535 338.08 388.762 337.355 389.217 336.747C389.677 336.139 390.322 335.67 391.152 335.341C391.987 335.011 392.964 334.847 394.083 334.847C395.737 334.847 397.038 335.196 397.987 335.895C398.941 336.594 399.498 337.545 399.657 338.75ZM414.76 335.017V337.744H406.876V335.017H414.76ZM408.666 331.881H412.297V344.085C412.297 344.42 412.348 344.682 412.45 344.869C412.552 345.051 412.694 345.179 412.876 345.253C413.064 345.327 413.279 345.364 413.524 345.364C413.694 345.364 413.865 345.349 414.035 345.321C414.206 345.287 414.336 345.261 414.427 345.244L414.998 347.946C414.816 348.003 414.561 348.068 414.231 348.142C413.902 348.222 413.501 348.27 413.029 348.287C412.154 348.321 411.387 348.205 410.728 347.937C410.075 347.67 409.566 347.256 409.203 346.693C408.839 346.131 408.66 345.42 408.666 344.562V331.881ZM422.899 348.364C421.575 348.364 420.43 348.082 419.464 347.52C418.504 346.952 417.762 346.162 417.24 345.151C416.717 344.133 416.456 342.955 416.456 341.614C416.456 340.261 416.717 339.08 417.24 338.068C417.762 337.051 418.504 336.261 419.464 335.699C420.43 335.131 421.575 334.847 422.899 334.847C424.223 334.847 425.365 335.131 426.325 335.699C427.291 336.261 428.035 337.051 428.558 338.068C429.081 339.08 429.342 340.261 429.342 341.614C429.342 342.955 429.081 344.133 428.558 345.151C428.035 346.162 427.291 346.952 426.325 347.52C425.365 348.082 424.223 348.364 422.899 348.364ZM422.916 345.551C423.518 345.551 424.021 345.381 424.424 345.04C424.828 344.693 425.132 344.222 425.336 343.625C425.547 343.028 425.652 342.349 425.652 341.588C425.652 340.827 425.547 340.148 425.336 339.551C425.132 338.955 424.828 338.483 424.424 338.136C424.021 337.79 423.518 337.616 422.916 337.616C422.308 337.616 421.797 337.79 421.382 338.136C420.973 338.483 420.663 338.955 420.453 339.551C420.248 340.148 420.146 340.827 420.146 341.588C420.146 342.349 420.248 343.028 420.453 343.625C420.663 344.222 420.973 344.693 421.382 345.04C421.797 345.381 422.308 345.551 422.916 345.551ZM449.462 335.017L444.885 348.108H440.794L436.218 335.017H440.053L442.772 344.383H442.908L445.618 335.017H449.462ZM451.32 348.108V335.017H454.951V348.108H451.32ZM453.144 333.33C452.604 333.33 452.141 333.151 451.755 332.793C451.374 332.429 451.184 331.994 451.184 331.489C451.184 330.989 451.374 330.56 451.755 330.202C452.141 329.838 452.604 329.656 453.144 329.656C453.684 329.656 454.144 329.838 454.525 330.202C454.911 330.56 455.104 330.989 455.104 331.489C455.104 331.994 454.911 332.429 454.525 332.793C454.144 333.151 453.684 333.33 453.144 333.33ZM463.825 348.364C462.478 348.364 461.319 348.091 460.348 347.545C459.382 346.994 458.637 346.216 458.115 345.21C457.592 344.199 457.331 343.003 457.331 341.622C457.331 340.276 457.592 339.094 458.115 338.077C458.637 337.06 459.373 336.267 460.322 335.699C461.277 335.131 462.396 334.847 463.68 334.847C464.544 334.847 465.348 334.986 466.092 335.264C466.842 335.537 467.495 335.949 468.052 336.5C468.615 337.051 469.052 337.744 469.365 338.58C469.677 339.409 469.833 340.381 469.833 341.494V342.491H458.779V340.241H466.416C466.416 339.719 466.302 339.256 466.075 338.852C465.848 338.449 465.532 338.133 465.129 337.906C464.731 337.673 464.268 337.557 463.74 337.557C463.189 337.557 462.7 337.685 462.274 337.94C461.853 338.19 461.524 338.528 461.285 338.955C461.047 339.375 460.924 339.844 460.919 340.361V342.5C460.919 343.148 461.038 343.707 461.277 344.179C461.521 344.651 461.865 345.014 462.308 345.27C462.751 345.526 463.277 345.653 463.885 345.653C464.288 345.653 464.657 345.597 464.993 345.483C465.328 345.369 465.615 345.199 465.853 344.972C466.092 344.744 466.274 344.466 466.399 344.136L469.757 344.358C469.586 345.165 469.237 345.869 468.708 346.472C468.186 347.068 467.51 347.534 466.68 347.869C465.856 348.199 464.904 348.364 463.825 348.364ZM474.691 348.108L471.129 335.017H474.802L476.831 343.812H476.95L479.064 335.017H482.669L484.816 343.761H484.927L486.922 335.017H490.586L487.032 348.108H483.189L480.939 339.875H480.777L478.527 348.108H474.691ZM505.041 335.017V337.744H497.157V335.017H505.041ZM498.947 331.881H502.578V344.085C502.578 344.42 502.629 344.682 502.731 344.869C502.833 345.051 502.975 345.179 503.157 345.253C503.345 345.327 503.561 345.364 503.805 345.364C503.975 345.364 504.146 345.349 504.316 345.321C504.487 345.287 504.618 345.261 504.708 345.244L505.279 347.946C505.098 348.003 504.842 348.068 504.512 348.142C504.183 348.222 503.782 348.27 503.311 348.287C502.436 348.321 501.669 348.205 501.01 347.937C500.356 347.67 499.848 347.256 499.484 346.693C499.12 346.131 498.941 345.42 498.947 344.562V331.881ZM511.318 340.54V348.108H507.687V330.653H511.216V337.327H511.369C511.664 336.554 512.142 335.949 512.801 335.511C513.46 335.068 514.287 334.847 515.281 334.847C516.19 334.847 516.983 335.045 517.659 335.443C518.341 335.835 518.869 336.401 519.244 337.139C519.625 337.872 519.812 338.75 519.806 339.773V348.108H516.176V340.42C516.181 339.614 515.977 338.986 515.562 338.537C515.153 338.088 514.579 337.864 513.841 337.864C513.346 337.864 512.909 337.969 512.528 338.179C512.153 338.389 511.858 338.696 511.642 339.099C511.431 339.497 511.324 339.977 511.318 340.54ZM528.63 348.364C527.283 348.364 526.124 348.091 525.152 347.545C524.186 346.994 523.442 346.216 522.919 345.21C522.397 344.199 522.135 343.003 522.135 341.622C522.135 340.276 522.397 339.094 522.919 338.077C523.442 337.06 524.178 336.267 525.127 335.699C526.081 335.131 527.201 334.847 528.485 334.847C529.348 334.847 530.152 334.986 530.897 335.264C531.647 335.537 532.3 335.949 532.857 336.5C533.419 337.051 533.857 337.744 534.169 338.58C534.482 339.409 534.638 340.381 534.638 341.494V342.491H523.584V340.241H531.221C531.221 339.719 531.107 339.256 530.88 338.852C530.652 338.449 530.337 338.133 529.934 337.906C529.536 337.673 529.073 337.557 528.544 337.557C527.993 337.557 527.505 337.685 527.078 337.94C526.658 338.19 526.328 338.528 526.09 338.955C525.851 339.375 525.729 339.844 525.723 340.361V342.5C525.723 343.148 525.843 343.707 526.081 344.179C526.326 344.651 526.669 345.014 527.113 345.27C527.556 345.526 528.081 345.653 528.689 345.653C529.093 345.653 529.462 345.597 529.797 345.483C530.132 345.369 530.419 345.199 530.658 344.972C530.897 344.744 531.078 344.466 531.203 344.136L534.561 344.358C534.391 345.165 534.042 345.869 533.513 346.472C532.99 347.068 532.314 347.534 531.485 347.869C530.661 348.199 529.709 348.364 528.63 348.364ZM537.007 348.108V335.017H540.468V337.327H540.621C540.894 336.56 541.348 335.955 541.985 335.511C542.621 335.068 543.382 334.847 544.269 334.847C545.167 334.847 545.931 335.071 546.561 335.52C547.192 335.963 547.613 336.565 547.823 337.327H547.959C548.226 336.577 548.709 335.977 549.408 335.528C550.113 335.074 550.945 334.847 551.905 334.847C553.127 334.847 554.118 335.236 554.88 336.014C555.647 336.787 556.03 337.883 556.03 339.304V348.108H552.408V340.02C552.408 339.293 552.215 338.747 551.828 338.383C551.442 338.02 550.959 337.838 550.38 337.838C549.721 337.838 549.206 338.048 548.837 338.469C548.468 338.883 548.283 339.432 548.283 340.114V348.108H544.763V339.943C544.763 339.301 544.578 338.79 544.209 338.409C543.846 338.028 543.365 337.838 542.769 337.838C542.365 337.838 542.002 337.94 541.678 338.145C541.36 338.344 541.107 338.625 540.919 338.989C540.732 339.347 540.638 339.767 540.638 340.25V348.108H537.007ZM568.083 340.54V348.108H564.453V330.653H567.981V337.327H568.135C568.43 336.554 568.907 335.949 569.566 335.511C570.225 335.068 571.052 334.847 572.047 334.847C572.956 334.847 573.748 335.045 574.424 335.443C575.106 335.835 575.635 336.401 576.01 337.139C576.39 337.872 576.578 338.75 576.572 339.773V348.108H572.941V340.42C572.947 339.614 572.743 338.986 572.328 338.537C571.919 338.088 571.345 337.864 570.606 337.864C570.112 337.864 569.674 337.969 569.294 338.179C568.919 338.389 568.623 338.696 568.407 339.099C568.197 339.497 568.089 339.977 568.083 340.54ZM585.395 348.364C584.049 348.364 582.89 348.091 581.918 347.545C580.952 346.994 580.208 346.216 579.685 345.21C579.162 344.199 578.901 343.003 578.901 341.622C578.901 340.276 579.162 339.094 579.685 338.077C580.208 337.06 580.944 336.267 581.892 335.699C582.847 335.131 583.966 334.847 585.25 334.847C586.114 334.847 586.918 334.986 587.662 335.264C588.412 335.537 589.066 335.949 589.623 336.5C590.185 337.051 590.623 337.744 590.935 338.58C591.248 339.409 591.404 340.381 591.404 341.494V342.491H580.35V340.241H587.986C587.986 339.719 587.873 339.256 587.645 338.852C587.418 338.449 587.103 338.133 586.699 337.906C586.301 337.673 585.838 337.557 585.31 337.557C584.759 337.557 584.27 337.685 583.844 337.94C583.424 338.19 583.094 338.528 582.855 338.955C582.617 339.375 582.495 339.844 582.489 340.361V342.5C582.489 343.148 582.608 343.707 582.847 344.179C583.091 344.651 583.435 345.014 583.878 345.27C584.321 345.526 584.847 345.653 585.455 345.653C585.858 345.653 586.228 345.597 586.563 345.483C586.898 345.369 587.185 345.199 587.424 344.972C587.662 344.744 587.844 344.466 587.969 344.136L591.327 344.358C591.157 345.165 590.807 345.869 590.279 346.472C589.756 347.068 589.08 347.534 588.25 347.869C587.426 348.199 586.475 348.364 585.395 348.364ZM593.773 348.108V335.017H597.293V337.301H597.429C597.668 336.489 598.069 335.875 598.631 335.46C599.194 335.04 599.841 334.83 600.574 334.83C600.756 334.83 600.952 334.841 601.162 334.864C601.373 334.886 601.557 334.918 601.716 334.957V338.179C601.546 338.128 601.31 338.082 601.009 338.043C600.708 338.003 600.432 337.983 600.182 337.983C599.648 337.983 599.171 338.099 598.75 338.332C598.336 338.56 598.006 338.878 597.762 339.287C597.523 339.696 597.404 340.168 597.404 340.702V348.108H593.773ZM608.95 348.364C607.603 348.364 606.444 348.091 605.473 347.545C604.507 346.994 603.762 346.216 603.24 345.21C602.717 344.199 602.456 343.003 602.456 341.622C602.456 340.276 602.717 339.094 603.24 338.077C603.762 337.06 604.498 336.267 605.447 335.699C606.402 335.131 607.521 334.847 608.805 334.847C609.669 334.847 610.473 334.986 611.217 335.264C611.967 335.537 612.62 335.949 613.177 336.5C613.74 337.051 614.177 337.744 614.49 338.58C614.802 339.409 614.958 340.381 614.958 341.494V342.491H603.904V340.241H611.541C611.541 339.719 611.427 339.256 611.2 338.852C610.973 338.449 610.657 338.133 610.254 337.906C609.856 337.673 609.393 337.557 608.865 337.557C608.314 337.557 607.825 337.685 607.399 337.94C606.978 338.19 606.649 338.528 606.41 338.955C606.172 339.375 606.049 339.844 606.044 340.361V342.5C606.044 343.148 606.163 343.707 606.402 344.179C606.646 344.651 606.99 345.014 607.433 345.27C607.876 345.526 608.402 345.653 609.01 345.653C609.413 345.653 609.782 345.597 610.118 345.483C610.453 345.369 610.74 345.199 610.978 344.972C611.217 344.744 611.399 344.466 611.524 344.136L614.882 344.358C614.711 345.165 614.362 345.869 613.833 346.472C613.311 347.068 612.635 347.534 611.805 347.869C610.981 348.199 610.029 348.364 608.95 348.364ZM621.666 330.653L621.333 342.875H618.214L617.873 330.653H621.666ZM619.774 348.33C619.211 348.33 618.728 348.131 618.325 347.733C617.922 347.33 617.723 346.847 617.728 346.284C617.723 345.727 617.922 345.25 618.325 344.852C618.728 344.455 619.211 344.256 619.774 344.256C620.314 344.256 620.788 344.455 621.197 344.852C621.606 345.25 621.814 345.727 621.819 346.284C621.814 346.659 621.714 347.003 621.521 347.315C621.333 347.622 621.086 347.869 620.779 348.057C620.473 348.239 620.137 348.33 619.774 348.33Z" fill="white"/>
<defs>
<filter id="filter0_d_840_1629" x="405.894" y="49" width="131.475" height="148.558" filterUnits="userSpaceOnUse" color-interpolation-filters="sRGB">
<feFlood flood-opacity="0" result="BackgroundImageFix"/>
<feColorMatrix in="SourceAlpha" type="matrix" values="0 0 0 0 0 0 0 0 0 0 0 0 0 0 0 0 0 0 127 0" result="hardAlpha"/>
<feOffset dy="11"/>
<feGaussianBlur stdDeviation="11"/>
<feColorMatrix type="matrix" values="0 0 0 0 0 0 0 0 0 0 0 0 0 0 0 0 0 0 0.27 0"/>
<feBlend mode="normal" in2="BackgroundImageFix" result="effect1_dropShadow_840_1629"/>
<feBlend mode="normal" in="SourceGraphic" in2="effect1_dropShadow_840_1629" result="shape"/>
</filter>
<filter id="filter1_d_840_1629" x="253" y="74.3513" width="128.083" height="118.779" filterUnits="userSpaceOnUse" color-interpolation-filters="sRGB">
<feFlood flood-opacity="0" result="BackgroundImageFix"/>
<feColorMatrix in="SourceAlpha" type="matrix" values="0 0 0 0 0 0 0 0 0 0 0 0 0 0 0 0 0 0 127 0" result="hardAlpha"/>
<feOffset dy="11"/>
<feGaussianBlur stdDeviation="11"/>
<feColorMatrix type="matrix" values="0 0 0 0 0 0 0 0 0 0 0 0 0 0 0 0 0 0 0.27 0"/>
<feBlend mode="normal" in2="BackgroundImageFix" result="effect1_dropShadow_840_1629"/>
<feBlend mode="normal" in="SourceGraphic" in2="effect1_dropShadow_840_1629" result="shape"/>
</filter>
<filter id="filter2_d_840_1629" x="326.017" y="100.522" width="109.004" height="124.398" filterUnits="userSpaceOnUse" color-interpolation-filters="sRGB">
<feFlood flood-opacity="0" result="BackgroundImageFix"/>
<feColorMatrix in="SourceAlpha" type="matrix" values="0 0 0 0 0 0 0 0 0 0 0 0 0 0 0 0 0 0 127 0" result="hardAlpha"/>
<feOffset dy="11"/>
<feGaussianBlur stdDeviation="11"/>
<feColorMatrix type="matrix" values="0 0 0 0 0 0 0 0 0 0 0 0 0 0 0 0 0 0 0.27 0"/>
<feBlend mode="normal" in2="BackgroundImageFix" result="effect1_dropShadow_840_1629"/>
<feBlend mode="normal" in="SourceGraphic" in2="effect1_dropShadow_840_1629" result="shape"/>
</filter>
<filter id="filter3_d_840_1629" x="429.379" y="158.073" width="121.621" height="121.923" filterUnits="userSpaceOnUse" color-interpolation-filters="sRGB">
<feFlood flood-opacity="0" result="BackgroundImageFix"/>
<feColorMatrix in="SourceAlpha" type="matrix" values="0 0 0 0 0 0 0 0 0 0 0 0 0 0 0 0 0 0 127 0" result="hardAlpha"/>
<feOffset dy="11"/>
<feGaussianBlur stdDeviation="11"/>
<feColorMatrix type="matrix" values="0 0 0 0 0 0 0 0 0 0 0 0 0 0 0 0 0 0 0.27 0"/>
<feBlend mode="normal" in2="BackgroundImageFix" result="effect1_dropShadow_840_1629"/>
<feBlend mode="normal" in="SourceGraphic" in2="effect1_dropShadow_840_1629" result="shape"/>
</filter>
<filter id="filter4_d_840_1629" x="301.411" y="154.799" width="212.177" height="141.208" filterUnits="userSpaceOnUse" color-interpolation-filters="sRGB">
<feFlood flood-opacity="0" result="BackgroundImageFix"/>
<feColorMatrix in="SourceAlpha" type="matrix" values="0 0 0 0 0 0 0 0 0 0 0 0 0 0 0 0 0 0 127 0" result="hardAlpha"/>
<feOffset dy="11"/>
<feGaussianBlur stdDeviation="11"/>
<feColorMatrix type="matrix" values="0 0 0 0 0 0 0 0 0 0 0 0 0 0 0 0 0 0 0.27 0"/>
<feBlend mode="normal" in2="BackgroundImageFix" result="effect1_dropShadow_840_1629"/>
<feBlend mode="normal" in="SourceGraphic" in2="effect1_dropShadow_840_1629" result="shape"/>
</filter>
<linearGradient id="paint0_linear_840_1629" x1="407.444" y1="163.551" x2="407.444" y2="264.055" gradientUnits="userSpaceOnUse">
<stop stop-color="#5C6479"/>
<stop offset="0.9964" stop-color="#5C6479"/>
</linearGradient>
</defs>
</svg>
