<svg width="20" height="20" viewBox="0 0 20 20" fill="none" xmlns="http://www.w3.org/2000/svg">
<path d="M8.01413 0.953125C3.59583 0.953125 0.0141296 4.53513 0.0141296 8.95314C0.0141296 13.3712 3.59583 16.9532 8.01413 16.9532C9.85083 16.9532 11.5917 16.3222 12.942 15.2822L17.2953 19.6722C17.6859 20.0622 18.3423 20.0622 18.7329 19.6722C19.1234 19.2812 19.1234 18.6252 18.7329 18.2342L14.3494 13.8741C15.3902 12.5241 16.0141 10.7901 16.0141 8.95314C16.0141 4.53513 12.4324 0.953125 8.01413 0.953125ZM8.01413 2.95313C11.3278 2.95313 14.0141 5.63914 14.0141 8.95314C14.0141 12.2672 11.3278 14.9532 8.01413 14.9532C4.70043 14.9532 2.01413 12.2672 2.01413 8.95314C2.01413 5.63914 4.70043 2.95313 8.01413 2.95313Z" fill="white"/>
</svg>
