<svg width="24" height="24" viewBox="0 0 24 24" fill="none" xmlns="http://www.w3.org/2000/svg">
<path d="M12.0142 1.99902C6.49136 1.99902 2.01416 6.47602 2.01416 11.999C2.01416 17.522 6.49136 21.999 12.0142 21.999C17.5372 21.999 22.0142 17.522 22.0142 11.999C22.0142 6.47602 17.5372 1.99902 12.0142 1.99902ZM12.0142 3.99902C16.4322 3.99902 20.0142 7.58102 20.0142 11.999C20.0142 16.065 16.9412 19.302 13.0142 19.811V14.999H15.0142V11.999H13.0142V10.999C13.0142 10.429 13.4952 9.99802 14.0142 9.99902C14.3102 9.99902 15.0142 9.99902 15.0142 9.99902V6.99902H13.0142C11.3152 7.01802 10.0252 8.36502 10.0142 9.99902V11.999H8.01416V14.999H10.0142V19.593C6.58726 18.689 4.01416 15.71 4.01416 11.999C4.01416 7.58102 7.59586 3.99902 12.0142 3.99902Z" fill="white" fill-opacity="0.8"/>
</svg>
