<svg width="17" height="21" viewBox="0 0 17 21" fill="none" xmlns="http://www.w3.org/2000/svg">
<path d="M4.49774 0.0141602C1.94574 0.0141602 0.497742 1.46256 0.497742 4.01626V19.0242C0.497742 19.7425 1.24375 20.2128 1.90375 19.9309L8.49774 17.1169L15.0917 19.9309C15.7517 20.2139 16.4977 19.7423 16.4977 19.0242V4.01626C16.4977 1.39146 15.1927 0.0142602 12.4977 0.0141602H4.49774ZM6.49774 6.01736C7.21874 6.01736 7.86474 6.38286 8.21674 6.86146C8.31274 6.99286 8.49774 7.26796 8.49774 7.26796C8.49774 7.26786 8.71175 6.99026 8.80975 6.86146C9.17775 6.37936 9.82374 6.01736 10.4977 6.01736C11.6027 6.01736 12.4977 6.85726 12.4977 7.89326C12.4977 10.6031 8.49774 12.6771 8.49774 12.6771C8.49774 12.6771 4.49774 10.6031 4.49774 7.89326C4.49774 6.85736 5.39274 6.01736 6.49774 6.01736Z" fill="white"/>
</svg>
