<svg width="23" height="23" viewBox="0 0 23 23" fill="none" xmlns="http://www.w3.org/2000/svg">
<path d="M9.68316 0.278809C4.52847 0.278809 0.349823 4.45782 0.349823 9.61216C0.349823 14.7665 4.52847 18.9455 9.68316 18.9455C11.826 18.9455 13.857 18.2094 15.4324 16.996L20.5112 22.1177C20.9669 22.5727 21.7327 22.5727 22.1884 22.1177C22.644 21.6615 22.644 20.8962 22.1884 20.44L17.0743 15.3533C18.2886 13.7783 19.0165 11.7553 19.0165 9.61216C19.0165 4.45782 14.8378 0.278809 9.68316 0.278809ZM9.68316 2.61215C13.5491 2.61215 16.6832 5.74582 16.6832 9.61216C16.6832 13.4785 13.5491 16.6122 9.68316 16.6122C5.81717 16.6122 2.68316 13.4785 2.68316 9.61216C2.68316 5.74582 5.81717 2.61215 9.68316 2.61215Z" fill="url(#paint0_linear_1028_650)"/>
<defs>
<linearGradient id="paint0_linear_1028_650" x1="11.44" y1="0.278809" x2="11.44" y2="22.4589" gradientUnits="userSpaceOnUse">
<stop stop-color="#6E7198"/>
<stop offset="1" stop-color="#60648B"/>
</linearGradient>
</defs>
</svg>
