<svg width="24" height="24" viewBox="0 0 24 24" fill="none" xmlns="http://www.w3.org/2000/svg">
<path d="M16.0009 2.92969C13.2679 2.92969 11.0009 5.14768 11.0009 7.86768C11.0009 8.22068 11.0179 8.32371 11.0179 8.55371C8.65987 8.43771 7.14886 7.65272 4.95587 5.47272C4.75987 5.27872 4.50688 5.18369 4.25088 5.17969C4.20488 5.17869 4.05088 5.17969 4.00088 5.17969C3.44888 5.17969 3.00088 5.62769 3.00088 6.17969C3.00088 6.60869 3.00088 8.44669 3.00088 8.92969C3.00088 10.1377 3.40286 11.2767 4.02386 12.1267C4.02386 12.1347 4.00088 12.0237 4.00088 12.9297C4.00088 14.4797 4.63088 15.6397 5.67788 16.3297C5.33288 16.8677 4.39986 17.2557 3.65786 17.5857C3.21386 17.7827 2.87087 17.9317 2.68887 17.9927C2.46687 18.0687 2.28086 18.2427 2.15786 18.4607C2.14986 18.4737 2.13288 18.4787 2.12588 18.4927C2.11888 18.5057 2.10187 18.5087 2.09487 18.5237C1.99088 18.7547 1.99487 18.9887 2.06387 19.2107C2.06687 19.2217 2.05987 19.2317 2.06387 19.2427C2.14087 19.4647 2.31386 19.6497 2.53286 19.7737C2.54486 19.7807 2.55087 19.7977 2.56387 19.8047C2.57787 19.8117 2.58087 19.8297 2.59487 19.8357C4.19587 20.5567 6.06188 20.9297 8.00088 20.9297C14.6989 20.9297 20.2519 16.0917 21.0039 9.1897L21.9078 7.36768C22.2398 6.70268 21.7449 5.92969 21.0009 5.92969C21.0229 5.92969 20.9948 5.93068 20.9078 5.89868C20.7128 5.82568 20.4938 5.66669 20.2829 5.42969C20.1908 5.32669 20.0879 5.22169 20.0009 5.08569C19.0549 3.72369 17.6279 2.92969 16.0009 2.92969ZM16.0009 4.92969C16.9559 4.92969 17.7859 5.37569 18.3449 6.17969C18.4659 6.37169 18.6179 6.58968 18.7829 6.77368C19.0578 7.08268 19.9829 7.42267 19.9829 7.42267C19.9829 7.42267 19.4298 8.4607 19.0108 8.9447C18.4818 14.5777 13.7919 18.9297 8.00088 18.9297C7.30988 18.9297 6.35088 18.9157 5.45388 18.7507C7.31988 18.1927 9.00088 16.2057 9.00088 15.9297C7.01288 15.9297 6.27387 14.5277 6.08187 13.6177C6.66687 13.8397 8.22488 14.0037 9.01888 13.4257C6.08188 12.2347 5.00088 10.7357 5.00088 8.92969C5.00088 8.80369 5.00088 8.47269 5.00088 8.21069C7.17788 10.0297 8.95187 10.5717 12.0049 10.5497C12.3739 10.5477 13.0039 10.2777 13.0009 9.55469C12.9999 9.27669 13.0009 9.14168 13.0009 7.86768C13.0009 6.26268 14.3619 4.92969 16.0009 4.92969ZM17.0009 6.92969C16.4489 6.92969 16.0009 7.37769 16.0009 7.92969C16.0009 8.48169 16.4489 8.92969 17.0009 8.92969C17.5539 8.92969 18.0009 8.48169 18.0009 7.92969C18.0009 7.37769 17.5539 6.92969 17.0009 6.92969Z" fill="white" fill-opacity="0.8"/>
</svg>
