<svg width="24" height="24" viewBox="0 0 24 24" fill="none" xmlns="http://www.w3.org/2000/svg">
<path d="M5.9989 4.88281C3.7898 4.88281 1.9989 6.67381 1.9989 8.88281V14.8828C1.9989 17.0918 3.7898 18.8828 5.9989 18.8828H17.9989C20.208 18.8828 21.9989 17.0918 21.9989 14.8828V8.88281C21.9989 6.67381 20.208 4.88281 17.9989 4.88281H5.9989ZM10.7132 8.88281C10.8375 8.88281 10.9462 8.91781 11.048 8.97681C11.1059 9.00981 14.6688 11.2088 14.798 11.3438C14.9277 11.4798 14.9989 11.6748 14.9989 11.8828C14.9989 12.0148 14.9663 12.1268 14.9096 12.2348C14.8634 12.3218 14.8054 12.4068 14.731 12.4688C14.6094 12.5698 11.0255 14.8038 10.9364 14.8358C10.8636 14.8618 10.7944 14.8828 10.7132 14.8828C10.5347 14.8828 10.3696 14.8088 10.2444 14.6948C10.0929 14.5578 9.9989 14.3598 9.9989 14.1328C9.9989 13.9278 9.9989 9.83681 9.9989 9.63281C9.9989 9.21881 10.3187 8.88281 10.7132 8.88281Z" fill="white" fill-opacity="0.8"/>
</svg>
